<?xml version="1.0" encoding="UTF-8"?>
<svg width="46px" height="46px" viewBox="0 0 46 46" version="1.1" xmlns="http://www.w3.org/2000/svg" xmlns:xlink="http://www.w3.org/1999/xlink">
    <!-- Generator: sketchtool 47.1 (45422) - http://www.bohemiancoding.com/sketch -->
    <title>5F8CB541-7EF1-49FE-A9C0-D89E3DBCC56C</title>
    <desc>Created with sketchtool.</desc>
    <defs></defs>
    <g id="Page-1" stroke="none" stroke-width="1" fill="none" fill-rule="evenodd">
        <g id="Apple-TV-Copy-9" transform="translate(-163.000000, -174.000000)" fill="#B6CC4E">
            <g id="Group-2" transform="translate(163.000000, 174.000000)">
                <path d="M0.765610218,24 C1.18728882,24 1.53122044,23.6513683 1.53122044,23.2249171 C1.53122044,11.2718312 11.1336329,1.55061051 22.9406339,1.55061051 C27.7793959,1.55061051 32.4055616,3.18660021 36.1699216,6.19132497 L32.1187323,6.19132497 C31.6961752,6.19132497 31.353122,6.53951196 31.353122,6.96640789 C31.353122,7.39419318 31.6961752,7.7414908 32.1187323,7.7414908 L38.1715772,7.7414908 C38.2190161,7.74549295 38.2677727,7.74549295 38.3169685,7.7414908 L39,7.7414908 L39,0.775082915 C39,0.347742306 38.6560684,0 38.2343898,0 C37.8127112,0 37.4687796,0.347742306 37.4687796,0.775082915 L37.4687796,5.27305405 C33.3732261,1.86411221 28.2801392,0 22.9406339,0 C10.290715,0 0,10.4180393 0,23.2249171 C0,23.6513683 0.343053115,24 0.765610218,24" id="Fill-1"></path>
                <path d="M23.0002219,38.4528509 C14.4776984,38.4528509 7.54757274,31.5226347 7.54757274,23.0004438 C7.54757274,14.4778091 14.4776984,7.54714912 23.0002219,7.54714912 C31.5223016,7.54714912 38.4528711,14.4778091 38.4528711,23.0004438 C38.4528711,31.5226347 31.5223016,38.4528509 23.0002219,38.4528509 M23.0002219,6 C13.6291297,6 6,13.6287855 6,23.0004438 C6,32.3712145 13.6291297,40 23.0002219,40 C32.3713141,40 40,32.3712145 40,23.0004438 C40,13.6287855 32.3713141,6 23.0002219,6" id="Fill-3"></path>
                <path d="M23,11 C23.5502008,11 24,10.6634104 24,10.2488148 L24,8.75118517 C24,8.33314179 23.5502008,8 23,8 C22.4492255,8 22,8.33314179 22,8.75118517 L22,10.2488148 C22,10.6634104 22.4492255,11 23,11" id="Fill-5"></path>
                <path d="M23,34 C22.4492255,34 22,34.3365412 22,34.7510773 L22,36.2489227 C22,36.6664752 22.4492255,37 23,37 C23.5502008,37 24,36.6664752 24,36.2489227 L24,34.7510773 C24,34.3365412 23.5502008,34 23,34" id="Fill-7"></path>
                <path d="M34.7507542,24 L36.2488148,24 C36.6629795,24 37,23.5502008 37,23 C37,22.4492255 36.6629795,22 36.2488148,22 L34.7507542,22 C34.3365896,22 34,22.4492255 34,23 C34,23.5502008 34.3365896,24 34.7507542,24" id="Fill-9"></path>
                <path d="M10.2488148,22 L8.75118517,22 C8.33658957,22 8,22.4492255 8,23 C8,23.5502008 8.33658957,24 8.75118517,24 L10.2488148,24 C10.6634104,24 11,23.5502008 11,23 C11,22.4492255 10.6634104,22 10.2488148,22" id="Fill-11"></path>
                <path d="M23.0012654,23.2740184 C22.1732856,23.2740184 21.4995288,22.5794434 21.4995288,21.7268693 C21.4995288,20.8738513 22.1732856,20.1841583 23.0012654,20.1841583 C23.8288145,20.1841583 24.5030021,20.8738513 24.5030021,21.7268693 C24.5030021,22.5794434 23.8288145,23.2740184 23.0012654,23.2740184 M23.7521338,18.7461884 L23.7521338,14.7740184 C23.7521338,14.3479532 23.4143938,14 23.0012654,14 C22.5877063,14 22.2503971,14.3479532 22.2503971,14.7740184 L22.2503971,18.7461884 C20.9614712,19.0936978 20.0021001,20.2893431 20.0021001,21.7268693 C20.0021001,22.300282 20.1636466,22.8284252 20.4268598,23.2882206 L14.2200264,29.6800856 C13.9266579,29.981438 13.9266579,30.4723005 14.2200264,30.7732091 C14.3664952,30.9249948 14.5603511,31 14.7507606,31 C14.9446165,31 15.135026,30.9249948 15.2823564,30.7732091 L21.4891898,24.3786811 C21.931612,24.6511853 22.444253,24.8162855 23.0012654,24.8162855 C24.6563636,24.8162855 26,23.4320175 26,21.7268693 C26,20.2893431 25.0410597,19.0936978 23.7521338,18.7461884" id="Fill-13"></path>
                <path d="M10.6005502,40.1994143 C10.1554136,39.8660151 9.53049933,39.9604494 9.19966235,40.4095882 C8.86652789,40.8500896 8.95957579,41.481763 9.40930731,41.8099798 C9.57932076,41.9424181 9.78896573,42 9.99918506,42 C10.3064729,42 10.6103145,41.8733198 10.8101952,41.59923 C11.1278216,41.1593044 11.0393687,40.5276311 10.6005502,40.1994143" id="Fill-15"></path>
                <path d="M5.81440218,35.4137693 C5.49283442,34.9752803 4.86402901,34.8630821 4.41635625,35.1847933 C3.96868349,35.516236 3.86607987,36.1338985 4.18650122,36.580974 C4.38769602,36.8488759 4.68461599,37 5.00618375,37 C5.20565893,37 5.40570733,36.9358867 5.58626676,36.80995 C6.03393953,36.4888112 6.1313843,35.8608448 5.81440218,35.4137693" id="Fill-17"></path>
                <path d="M6.33410242,37.2511276 C5.9240992,37.6179193 5.88390281,38.2480193 6.25543234,38.6585042 C6.44665233,38.8873179 6.72400744,39 7.00767914,39 C7.23622435,39 7.47625425,38.9223873 7.66632577,38.7510645 C8.07575476,38.3796734 8.11595115,37.7484236 7.74499586,37.3385137 C7.38839642,36.9182554 6.75903573,36.8895099 6.33410242,37.2511276" id="Fill-19"></path>
                <path d="M8.6772364,38.2605476 C8.27638552,37.8899011 7.63720639,37.919208 7.26621833,38.3197361 C6.88546742,38.7294584 6.91877594,39.3598447 7.32996395,39.7408348 C7.52005227,39.9126539 7.7589548,40 7.99843161,40 C8.26719696,40 8.53481374,39.8925413 8.73638775,39.6827956 C9.10622724,39.2724986 9.08727584,38.6421123 8.6772364,38.2708912 L8.6772364,38.2605476 Z" id="Fill-21"></path>
                <path d="M4.86971321,33.5033026 L4.85939059,33.5033026 C4.59157601,33.0245203 3.98254157,32.8543888 3.50426029,33.137175 C3.02253814,33.4061667 2.85680278,34.0165709 3.13493998,34.4959279 C3.3150123,34.8177984 3.65164433,35 4.00203985,35 C4.16318738,35 4.34325971,34.9545933 4.48892331,34.8666537 C4.97179242,34.597662 5.14326257,33.9878325 4.86971321,33.5033026" id="Fill-23"></path>
                <path d="M44.9604171,25 L45.0005737,25 C45.5409659,25 45.9803931,24.570421 45.999324,24.0425045 C46.0194023,23.4789336 45.5897274,23.0154253 45.0395829,23.0010485 C44.4928803,22.9757453 44.0190332,23.4116502 44.000676,23.958544 C43.9805977,24.5117636 44.4102726,24.9810226 44.9604171,25" id="Fill-25"></path>
                <path d="M1.10508692,26 C1.65572608,25.9424613 2.05707829,25.448204 1.99334425,24.8998603 C1.93477783,24.3474889 1.44615017,23.9470197 0.894936833,24.0057091 C0.342575131,24.0592201 -0.0570545415,24.5575051 0.00667950104,25.1012457 C0.0554848489,25.6196693 0.495307161,26 0.997715154,26 L1.10508692,26 Z" id="Fill-27"></path>
                <path d="M1.20798907,28.9798252 C1.74656821,28.8720339 2.0981407,28.3382653 1.97557942,27.7998852 C1.86797868,27.2551646 1.335729,26.9023931 0.797149864,27.0240186 C0.25396749,27.1323863 -0.0981804048,27.6667313 0.0243808724,28.2108756 C0.117021087,28.6812375 0.537642183,29 0.997390824,29 C1.06643943,29 1.13433723,29 1.20798907,28.9798252" id="Fill-29"></path>
                <path d="M3.91639699,31.5918851 C3.6961362,31.0955776 3.10551521,30.8611783 2.59770768,31.0852618 C2.09335071,31.3047603 1.86388841,31.8887526 2.08299902,32.3999608 C2.25437688,32.7656007 2.61611067,33 3.00774932,33 C3.13426988,33 3.27689306,32.9696255 3.40341362,32.9077304 C3.90662041,32.6876587 4.13665779,32.0985085 3.91639699,31.5918851" id="Fill-31"></path>
                <path d="M2.95102088,29.6998593 C2.78939207,29.1662324 2.21765172,28.8787179 1.69940419,29.0489265 C1.16620168,29.2202851 0.878030738,29.7774883 1.0494378,30.3105402 C1.18633338,30.7308864 1.57631321,31 1.99735338,31 C2.10031266,31 2.20787347,30.9896495 2.31025755,30.960898 C2.82850509,30.7895394 3.12242794,30.2173855 2.95102088,29.6998593" id="Fill-33"></path>
                <path d="M23.0165011,44.0001789 C22.4696166,43.9898439 22.0101416,44.428507 22.0003655,44.9808549 C21.9854139,45.5423895 22.4310874,45.9908133 22.9779719,46 L22.9980991,46 C23.5495841,46 23.990082,45.5705236 23.9998581,45.019324 C24.0090591,44.4732919 23.5697113,44.0087914 23.0165011,44.0001789" id="Fill-35"></path>
                <path d="M41.6105171,36.2082209 C41.1716729,35.8723699 40.5513173,35.949874 40.2095473,36.3896378 C39.872947,36.8190677 39.9504914,37.4528787 40.3801451,37.790452 C40.5702726,37.9316816 40.7805043,38 41.0005007,38 C41.2877024,38 41.5915618,37.8691042 41.7914541,37.608461 C42.1274801,37.1801792 42.05051,36.5509611 41.6105171,36.2082209" id="Fill-37"></path>
                <path d="M35.4304064,40.1765967 C34.9813438,40.48481 34.8588722,41.115612 35.1814383,41.5647063 C35.3671582,41.8481935 35.6799496,42 36.0025157,42 C36.1974353,42 36.388905,41.9459477 36.568875,41.8286426 C37.0196626,41.5158292 37.1409842,40.8850271 36.8178432,40.4359329 C36.5102267,39.9764881 35.8898188,39.8637833 35.4304064,40.1765967" id="Fill-39"></path>
                <path d="M36.349699,39.237843 C35.9306476,39.5991196 35.881854,40.2291999 36.2377606,40.649062 C36.4369535,40.8776599 36.7205308,41 36.9983676,41 C37.2279847,41 37.458176,40.9167168 37.6481842,40.7599147 C38.0672356,40.3986381 38.1211956,39.7691322 37.7601226,39.3504189 C37.3990495,38.9305568 36.7693244,38.8817356 36.349699,39.237843" id="Fill-41"></path>
                <path d="M42.5307167,34.1482402 C42.0573772,33.8596394 41.4383066,34.0056645 41.1497129,34.4713352 C40.8628405,34.9404554 40.998818,35.5607748 41.4669938,35.8488007 C41.6379698,35.9511333 41.8192731,36 41.9988553,36 C42.3304798,36 42.6569406,35.8384525 42.8479976,35.5308799 C43.1400338,35.0617597 42.9988925,34.4362662 42.5307167,34.1482402" id="Fill-43"></path>
                <path d="M38.2818204,37.3087939 C37.8914319,37.7039839 37.9115254,38.3401995 38.3116736,38.722159 C38.501701,38.9073863 38.7497125,39 39.0051874,39 C39.2635327,39 39.5310637,38.8976073 39.7222393,38.6870694 C40.1017199,38.286127 40.0931084,37.656239 39.6918119,37.2737043 C39.2922378,36.8980725 38.6624492,36.9084268 38.2818204,37.3087939" id="Fill-45"></path>
                <path d="M45.1387507,25.009954 C44.6012136,24.9323077 44.0895197,25.3176635 44.011416,25.8606124 C43.9281437,26.4127639 44.3094734,26.912576 44.8602192,26.9896472 C44.9107569,27 44.9589974,27 45.0026435,27 C45.4902173,27 45.9197875,26.6434022 45.9887025,26.1453155 C46.0714005,25.6017914 45.6912194,25.0887507 45.1387507,25.009954" id="Fill-47"></path>
                <path d="M45.2466498,27.028656 C44.7094077,26.8975384 44.1687217,27.2296266 44.0275235,27.7540968 C43.9001007,28.2945989 44.2272674,28.8351011 44.7576217,28.9713717 C44.8368305,28.9965646 44.9194831,29 44.9975439,29 C45.4463936,29 45.8562129,28.6931047 45.9687123,28.2459309 C46.1058927,27.7054287 45.7787261,27.1706523 45.2466498,27.028656" id="Fill-49"></path>
                <path d="M12.5142077,41.1386799 C12.0359538,40.8605714 11.425649,41.0125276 11.1477679,41.4890393 C10.8538111,41.9621105 11.0151429,42.5814037 11.4836365,42.8595122 C11.6449683,42.9564201 11.8258206,43 11.9969127,43 C12.3333554,43 12.6652051,42.8302678 12.8552435,42.5085794 C13.1428849,42.040669 12.9878686,41.4305505 12.5142077,41.1386799" id="Fill-51"></path>
                <path d="M44.3451483,30.0615033 C43.8263892,29.8706342 43.2437208,30.1388827 43.0629324,30.660477 C42.8712045,31.1814982 43.1314477,31.7466542 43.6548129,31.9375233 C43.7624799,31.9764996 43.8851166,32 43.9979654,32 C44.4090576,32 44.7959678,31.7466542 44.9376046,31.3379765 C45.1281809,30.8163821 44.8685135,30.2512261 44.3451483,30.0615033" id="Fill-53"></path>
                <path d="M43.4360467,32.0978256 C42.9475069,31.8647891 42.3378368,32.0593688 42.0995947,32.5616026 C41.8596304,33.0598184 42.0691686,33.659629 42.5577084,33.8978313 C42.6989314,33.9667091 42.8453211,34 42.9963035,34 C43.3671574,34 43.728252,33.7916447 43.8999011,33.4397941 C44.1381432,32.9375604 43.9383643,32.3417677 43.4360467,32.0978256" id="Fill-55"></path>
                <path d="M20.1224982,44.0075297 C19.5694976,43.940329 19.0814545,44.3303225 19.0078744,44.8822868 C18.938893,45.4290817 19.3309371,45.9327994 19.8776144,45.9896614 L19.8776144,46 L20.0000563,46 C20.4990215,46 20.9278556,45.6283862 20.9922382,45.1212224 C21.0606447,44.5698325 20.6691755,44.0816227 20.1224982,44.0075297" id="Fill-57"></path>
                <path d="M16.3288408,43.0553712 C15.8055684,42.8755045 15.2339939,43.1473158 15.0522861,43.6754227 C14.8774786,44.1977831 15.1552155,44.7649666 15.6733127,44.9459825 C15.7860175,44.9747152 15.8935471,45 16.0056769,45 C16.4162445,45 16.8078363,44.7362339 16.9446921,44.325931 C17.1258249,43.797824 16.846938,43.226618 16.3288408,43.0553712" id="Fill-59"></path>
                <path d="M18.2249074,44.0254228 C17.6824406,43.9026601 17.1543399,44.2357908 17.0233203,44.7810185 C16.9060923,45.3187536 17.2422609,45.8628286 17.7749588,45.9809804 C17.8536854,46 17.9209191,46 18.0048176,46 C18.453617,46 18.873684,45.6910761 18.971374,45.2311483 C19.1041175,44.6859206 18.7616278,44.1487618 18.2249074,44.0254228" id="Fill-61"></path>
                <path d="M14.427664,42.0972005 C13.913943,41.8576953 13.3237104,42.0770498 13.0930249,42.5767866 C12.8629148,43.0805535 13.0728903,43.6833465 13.5774069,43.9073069 C13.7137472,43.9712133 13.8552649,44 13.9979332,44 C14.3735881,44 14.7354364,43.7892815 14.9068685,43.4185091 C15.1369786,42.9187723 14.9270031,42.3274939 14.427664,42.0972005" id="Fill-63"></path>
                <path d="M26.8156841,44.0162726 C26.274742,44.1191368 25.9194622,44.6466749 26.0157316,45.188005 C26.1085628,45.6672717 26.5377636,46 27.0053577,46 C27.0638069,46 27.1274135,46 27.1858627,45.9902308 C27.7210745,45.8770227 28.0815116,45.3546565 27.9840962,44.8173491 C27.8815234,44.2656751 27.3554802,43.919155 26.8156841,44.0162726" id="Fill-65"></path>
                <path d="M28.7129677,43.0439137 C28.1817028,43.1910095 27.8857287,43.7545885 28.0414442,44.2893252 C28.172543,44.7208063 28.5709918,45 28.9992096,45 C29.0873721,45 29.1898467,44.9913473 29.287169,44.9607744 C29.8167165,44.7992574 30.1144081,44.2351016 29.9586925,43.7055566 C29.798397,43.1806263 29.2385079,42.8823967 28.7129677,43.0439137" id="Fill-67"></path>
                <path d="M31.6165867,43.0761665 C31.1048169,43.2863428 30.866144,43.8782916 31.0761303,44.3919281 C31.2373493,44.7690939 31.6079808,45 31.9923818,45 C32.1249141,45 32.2557253,44.9798461 32.383094,44.9309009 C32.8954375,44.7103597 33.1341104,44.1287758 32.9235504,43.6185942 C32.7043844,43.1049578 32.1249141,42.8659901 31.6165867,43.0761665" id="Fill-69"></path>
                <path d="M24.914989,44.0025041 C24.3632174,44.0507473 23.9506833,44.5297328 24.0047673,45.0822316 C24.0450426,45.6042914 24.4846187,46 25.0076222,46 L25.0870221,46 L25.0870221,45.9896622 C25.6387937,45.9511825 26.0444235,45.472197 25.9960932,44.9208468 C25.9569686,44.3735169 25.467336,43.9640245 24.914989,44.0025041" id="Fill-71"></path>
                <path d="M33.524748,42.1244808 C33.0371735,42.382422 32.855697,42.9911633 33.124466,43.4737999 C33.3059425,43.8091235 33.6470724,44 34.0031339,44 C34.1639359,44 34.3258864,43.960449 34.4769254,43.8681634 C34.9656486,43.6102222 35.1454022,43.0009077 34.8720388,42.5234299 C34.6130328,42.0362076 34.0031339,41.8562219 33.524748,42.1244808" id="Fill-73"></path>
            </g>
        </g>
    </g>
</svg>