<?xml version="1.0" encoding="UTF-8"?>
<svg width="62px" height="40px" viewBox="0 0 62 40" version="1.1" xmlns="http://www.w3.org/2000/svg" xmlns:xlink="http://www.w3.org/1999/xlink">
    <!-- Generator: sketchtool 47.1 (45422) - http://www.bohemiancoding.com/sketch -->
    <title>945F45A7-4EEB-46C1-B8D2-12E55052F2BF</title>
    <desc>Created with sketchtool.</desc>
    <defs>
        <polygon id="path-1" points="0 0 0 40 62 40 62 3.32553702e-14 8.05645574e-21 3.32553702e-14"></polygon>
    </defs>
    <g id="Page-1" stroke="none" stroke-width="1" fill="none" fill-rule="evenodd">
        <g id="Apple-TV-Copy-9" transform="translate(-1328.000000, -179.000000)">
            <g id="Group-77" transform="translate(1328.000000, 179.000000)">
                <mask id="mask-2" fill="white">
                    <use xlink:href="#path-1"></use>
                </mask>
                <g id="Clip-76"></g>
                <path d="M38.0341791,38.0301883 L38.0341791,31.746331 C39.5619416,32.3477467 41.1919512,32.6584001 42.8380113,32.6619103 C45.3371216,32.6110123 47.7952142,32.0300728 50.0446512,30.9577043 L50.0446512,38.0301883 L38.0341791,38.0301883 Z M31.7881866,19.8467261 L31.7881866,19.3348207 L31.7881866,19.1675008 C31.8125595,18.7930786 31.6187655,18.4379626 31.2876512,18.2507515 L23.1108523,13.6213722 C22.9580761,13.5365422 22.7856826,13.4926646 22.6103169,13.4938347 L10.4595521,13.4938347 L10.4595521,8.96215621 L41.8577465,8.96215621 L41.8577465,18.1524657 C41.8577465,18.6965479 42.3059695,19.137664 42.8582229,19.137664 L56.7709674,19.137664 C56.8024738,19.3699228 56.8226855,19.6033516 56.8304135,19.8367805 C56.8304135,25.6982427 49.1535555,30.6722074 42.8183941,30.6722074 C36.7370671,30.6452958 31.819693,25.7918483 31.8083983,19.8075287 L31.7881866,19.8467261 Z M2.00216808,3.10186403 L8.43779329,8.40052294 L8.43779329,13.4540523 L2.00216808,13.4540523 L2.00216808,3.10186403 Z M56.2799434,17.1380156 L43.8592937,17.1380156 L43.8592937,8.98204739 C48.9336053,9.38572131 54.5589814,12.7941332 56.2799434,17.1380156 L56.2799434,17.1380156 Z M61.4648245,33.282632 C60.9642891,33.0515434 60.3686401,33.2633259 60.1338283,33.75534 C60.1338283,33.75534 58.2018329,37.6066232 52.1264506,37.990991 L52.1264506,29.8543289 C55.9702297,27.5106801 58.8729784,23.8758598 58.8729784,19.778277 C58.8729784,12.6665957 50.1344147,6.97245334 42.8582229,6.97245334 L41.6972423,6.97245334 L41.6972423,1.97859749 L58.1917271,1.97859749 C58.744575,1.97859749 59.192798,1.53748135 59.192798,0.993399119 C59.192798,0.449901921 58.744575,0.00878578742 58.1917271,0.00878578742 L23.160787,0.00878578742 C22.6079391,0.00878578742 22.1597161,0.449901921 22.1597161,0.993399119 C22.1597161,1.53748135 22.6079391,1.97859749 23.160787,1.97859749 L39.6956951,1.97859749 L39.6956951,6.96250775 L9.82882996,6.96250775 L1.66154244,0.24513979 C1.24660928,-0.114071491 0.614103714,-0.0737040996 0.249105203,0.334650093 C0.0868175916,0.516595872 -0.00175696561,0.75119477 2.64147405e-05,0.993399119 L2.64147405e-05,14.4486113 C2.64147405e-05,14.9926935 0.448249342,15.4338096 1.00109725,15.4338096 L22.399878,15.4338096 L29.8068511,19.6302632 L29.8068511,19.8174743 C29.8038788,24.2807037 32.1626965,28.4233342 36.0320374,30.7511871 L36.0320374,38.0301883 L26.8838907,38.0301883 C26.3310428,38.0301883 25.8834143,38.4713044 25.8834143,39.0153867 C25.8834143,39.5594689 26.3310428,40 26.8838907,40 L51.0457221,40 C59.2130096,40 61.7953443,34.8089875 61.8952136,34.5925246 C62.1371589,34.1133813 61.9463372,33.5318568 61.4648245,33.282632 L61.4648245,33.282632 Z" id="Fill-75" fill="#B6CC4E" mask="url(#mask-2)"></path>
            </g>
        </g>
    </g>
</svg>