<svg xmlns="http://www.w3.org/2000/svg" width="224" height="29" viewBox="0 0 224 29">
    <g fill="#BAD341" fill-rule="evenodd">
        <path d="M25.946 7H2.054C.921 7 0 7.852 0 8.904c0 1.051.921 1.905 2.054 1.905h3.217v15.843C5.271 27.949 6.406 29 7.805 29c1.397 0 2.532-1.05 2.532-2.348V10.809H14.1v15.843c0 1.297 1.136 2.348 2.534 2.348 1.4 0 2.534-1.05 2.534-2.348V10.809h3.763v15.843c0 1.297 1.134 2.348 2.534 2.348S28 27.95 28 26.652V9.349c0-.077-.017-.148-.024-.223.01-.074.024-.146.024-.222C28 7.852 27.08 7 25.946 7M42.664 7.004L42.66 7 42.08 7h-7.407l-.012.03c-.096-.013-.191-.03-.29-.03C33.06 7 32 8.05 32 9.349v17.303A2.358 2.358 0 0 0 34.37 29a2.36 2.36 0 0 0 2.37-2.348V21.3h5.866l.001-.002.022.002c1.31 0 2.371-1.05 2.371-2.349V9.072c-.009.002-.019.003-.027.006a2.352 2.352 0 0 0-2.31-2.074zm-5.925 10.49h3.522v-6.685h-3.522v6.684zM61.622 7c-1.312 0-2.377 1.05-2.377 2.349v7.933l-3.49 3.449V9.349C55.756 8.05 54.693 7 53.38 7 52.067 7 51 8.05 51 9.349v17.303C51 27.949 52.067 29 53.379 29c.36 0 .699-.086 1.005-.228.353-.119.687-.308.969-.586l.77-.763 3.122-3.085v2.314c0 1.297 1.065 2.348 2.377 2.348C62.935 29 64 27.95 64 26.652V9.349C64 8.05 62.935 7 61.622 7M173.663 7.003a.007.007 0 0 0-.003-.002L173.08 7h-7.408l-.011.03c-.097-.013-.191-.03-.29-.03C164.06 7 163 8.05 163 9.349v17.303A2.359 2.359 0 0 0 165.37 29a2.358 2.358 0 0 0 2.37-2.348V21.3h5.866l.002-.002.022.002c1.309 0 2.37-1.05 2.37-2.349V9.072c-.009.002-.019.003-.027.006a2.352 2.352 0 0 0-2.31-2.075zm-5.924 10.49h3.522V10.81h-3.522v6.684zM153.629 7c-1.31 0-2.37 1.05-2.37 2.349v8.144h-3.521V9.142c-.009-.009-.015-.02-.024-.027A2.352 2.352 0 0 0 145.368 7a2.353 2.353 0 0 0-2.34 2.078L143 9.072V18.953a2.359 2.359 0 0 0 2.368 2.348l.024-.002.001.001h5.867v3.848h-6.337A1.913 1.913 0 0 0 143 27.054c0 1.052.86 1.904 1.923 1.904h8.28A2.36 2.36 0 0 0 156 26.652V9.349A2.359 2.359 0 0 0 153.629 7M109.908 7.028l-.02-.028h-8.519A2.358 2.358 0 0 0 99 9.349v17.303A2.359 2.359 0 0 0 101.37 29a2.358 2.358 0 0 0 2.368-2.348v-5.351h3.524v5.351A2.357 2.357 0 0 0 109.63 29a2.36 2.36 0 0 0 2.37-2.348V9.35c0-1.204-.916-2.184-2.092-2.321zm-6.17 10.465h3.524V10.81h-3.524v6.684zM191.908 7.028l-.02-.028h-8.519A2.358 2.358 0 0 0 181 9.349v17.303A2.358 2.358 0 0 0 183.37 29c1.308 0 2.369-1.05 2.369-2.348v-5.351h3.523v5.351A2.357 2.357 0 0 0 191.63 29c1.309 0 2.37-1.05 2.37-2.348V9.35c0-1.205-.916-2.184-2.092-2.321zm-6.169 10.465h3.523V10.81h-3.523v6.684zM215.962 7.016h-14.285c-.056-.004-.11-.016-.166-.016-.057 0-.11.012-.166.016h-.106l-.008.01C199.978 7.159 199 8.139 199 9.345v9.589c0 1.294 1.125 2.342 2.511 2.342.02 0 .039-.005.058-.005v.005h2.402l-3.229 3.01-.768.717a2.234 2.234 0 0 0 0 3.313c.981.913 2.57.913 3.551 0l.767-.717 3.562-3.323V26.611c0 1.294 1.124 2.341 2.51 2.341 1.389 0 2.51-1.047 2.51-2.341V10.813h3.088c1.126 0 2.038-.85 2.038-1.899 0-1.05-.912-1.898-2.038-1.898zm-8.108 10.463h-3.833V10.813h3.833v6.666zM135.548 7a2.5 2.5 0 0 0-1.74.693c-.007-.004-.015-.005-.022-.008l-6.838 6.55-6.453-6.183A2.475 2.475 0 0 0 118.452 7C117.098 7 116 8.05 116 9.349v17.303c0 1.297 1.098 2.348 2.452 2.348 1.355 0 2.451-1.05 2.451-2.348V13.83l3.656 3.503v1.731c0 1.298 1.098 2.349 2.452 2.349 1.354 0 2.453-1.051 2.453-2.349v-1.853l3.63-3.478v12.919c0 1.297 1.098 2.348 2.454 2.348 1.354 0 2.452-1.05 2.452-2.348V9.349C138 8.05 136.902 7 135.548 7M82.114 7c-.731 0-1.36.41-1.685 1.006-.27.38-.429.842-.429 1.343v17.303c0 .5.16.961.429 1.342A1.918 1.918 0 0 0 82.114 29H93c-.004-.02-.003-.04-.005-.06H93V23.65c0-1.296-1.062-2.348-2.372-2.348a2.359 2.359 0 0 0-2.368 2.349v1.541h-3.52V10.81h3.52v1.345a2.359 2.359 0 0 0 2.368 2.348c1.31 0 2.372-1.052 2.372-2.348v-5.04a.187.187 0 0 0-.011.008c.003-.04.013-.081.01-.122H82.115zM219.975 2.129h.579c.461 0 .717.345.727.614.01.287-.276.594-.727.594h-.579V2.129zm1.963.614c-.01-.825-.599-1.199-1.384-1.199h-1.277v3.807h.698V3.912h.245l1.12 1.439h.815l-1.189-1.468c.61-.114.972-.507.972-1.14zm-1.453 3.605c1.581 0 2.799-1.247 2.799-2.848 0-1.601-1.218-2.848-2.799-2.848-1.56 0-2.769 1.247-2.769 2.848 0 1.601 1.208 2.848 2.77 2.848zm0-6.348A3.49 3.49 0 0 1 224 3.5a3.49 3.49 0 0 1-3.515 3.5A3.478 3.478 0 0 1 217 3.5c0-1.947 1.551-3.5 3.485-3.5z"/>
    </g>
</svg>
