<?xml version="1.0" encoding="UTF-8"?>
<svg width="43px" height="43px" viewBox="0 0 43 43" version="1.1" xmlns="http://www.w3.org/2000/svg" xmlns:xlink="http://www.w3.org/1999/xlink">
    <!-- Generator: sketchtool 47.1 (45422) - http://www.bohemiancoding.com/sketch -->
    <title>EF32C55B-5D73-4011-BC15-172BCC1E806B</title>
    <desc>Created with sketchtool.</desc>
    <defs>
        <polygon id="path-1" points="42.6193719 0.388791667 0 0.388791667 0 43 21.309686 43 42.6193719 43"></polygon>
    </defs>
    <g id="Page-1" stroke="none" stroke-width="1" fill="none" fill-rule="evenodd">
        <g id="Apple-TV-Copy-10" transform="translate(-1099.000000, -174.000000)">
            <g id="Page-1" transform="translate(1099.000000, 174.000000)">
                <g id="Group-3">
                    <mask id="mask-2" fill="white">
                        <use xlink:href="#path-1"></use>
                    </mask>
                    <g id="Clip-2"></g>
                    <path d="M38.1080333,39.8645833 C37.8213667,40.1387083 37.5418667,40.403875 37.282075,40.6636667 C35.9669917,41.97875 32.5162417,41.8461667 28.4849917,40.3268333 C23.5095333,38.4509583 18.0772,34.7207083 13.1769917,29.8240833 C8.28036667,24.92925 4.55011667,19.4915417 2.67424167,14.5089167 C1.15490833,10.4848333 1.02053333,7.02691667 2.33024167,5.719 C2.5972,5.45920833 2.86415833,5.17254167 3.14186667,4.885875 C4.50890833,3.44358333 6.053325,1.82033333 7.76795,1.82033333 L7.87903333,1.82033333 C9.08303333,1.86870833 10.385575,2.75020833 11.74545,4.43795833 C15.7946167,9.48329167 14.36845,10.88975 11.987325,13.2350417 L11.5340333,13.6829583 C9.62949167,15.5857083 11.5752417,19.29625 17.63645,25.3574583 C20.092825,27.8138333 22.2069917,29.6252083 23.91445,30.739625 C26.3851583,32.341375 28.198325,32.5868333 29.31095,31.4670417 L29.7732,31.0047917 C32.1095333,28.6397917 33.5159917,27.2046667 38.5631167,31.2574167 C40.249075,32.6065417 41.130575,33.9090833 41.1807417,35.1220417 C41.2506167,36.8760833 39.5843667,38.4652917 38.1080333,39.8645833 M39.4661167,30.143 C33.412075,25.27325 31.2495333,27.4626667 28.7501583,29.9960833 L28.295075,30.4511667 C27.5461583,31.20725 25.72045,30.2003333 24.6992,29.535625 C23.0669917,28.4803333 21.038825,26.73525 18.652325,24.34875 C11.3441167,17.0423333 12.1288667,15.1180833 12.54095,14.7042083 L12.9960333,14.2562917 C15.5366167,11.7515417 17.727825,9.59616667 12.8652417,3.542125 C11.2115333,1.49066667 9.600825,0.455083333 7.93815833,0.392375 C5.569575,0.286666667 3.70803333,2.20554167 2.09911667,3.89866667 C1.83215833,4.17816667 1.57415833,4.45229167 1.31436667,4.703125 C-0.441466667,6.46791667 -0.441466667,10.3235833 1.33049167,15.012375 C3.28340833,20.17775 7.12653333,25.7982083 12.1647,30.836375 C17.2046583,35.8709583 22.8143667,39.7176667 27.9815333,41.6634167 C30.3322,42.5520833 32.4732417,43 34.2523667,43 C36.0153667,43 37.4146583,42.55925 38.2961583,41.67775 C38.5487833,41.425125 38.8211167,41.1742917 39.0952417,40.9073333 C40.7883667,39.2984167 42.7126167,37.4709167 42.6158667,35.0647083 C42.5459917,33.3984583 41.5157833,31.78775 39.4661167,30.143" id="Fill-1" fill="#B6CC4E" mask="url(#mask-2)"></path>
                </g>
                <path d="M33.6459791,16.9547861 C33.7294034,16.9866033 33.8128276,17 33.8946161,17 C34.1514319,17 34.3935258,16.8425888 34.4965793,16.5880514 C35.5303857,13.9840676 34.9431444,11.0217221 32.9998501,9.03901031 C31.0140258,6.99936255 27.9535009,6.4233044 25.3837068,7.61393622 C25.0516456,7.7646491 24.9109694,8.16320096 25.0581887,8.50314226 C25.2054079,8.8363852 25.5947211,8.98709809 25.9202392,8.8363852 C27.9976666,7.88187024 30.4709503,8.33903267 32.0805476,9.98180315 C33.639436,11.5910819 34.1187165,13.9840676 33.2877456,16.0840006 C33.1470694,16.4239418 33.3139179,16.8107716 33.6459791,16.9547861" id="Fill-4" fill="#B6CC4E"></path>
                <path d="M23.0283263,2.54986312 C27.9687208,0.365712794 33.8666689,1.41254358 37.6986998,5.16161721 C41.4326133,8.80778206 42.5682318,14.2477536 40.5804452,19.031238 C40.4241841,19.3914187 40.6095171,19.8066024 40.9783659,19.9520942 C41.0710324,19.98758 41.1618819,20 41.2545484,20 C41.5398157,20 41.8159981,19.8349911 41.9286515,19.5635248 C44.1290258,14.2548507 42.880754,8.20452364 38.7289329,4.15736938 C34.4699094,-0.00866228316 27.9178451,-1.17259617 22.4250858,1.25285753 C22.0635048,1.41254358 21.8999758,1.83482447 22.0635048,2.18790807 C22.2324849,2.54986312 22.6594774,2.70067773 23.0283263,2.54986312" id="Fill-6" fill="#B6CC4E"></path>
            </g>
        </g>
    </g>
</svg>