<?xml version="1.0" encoding="UTF-8"?>
<svg width="36px" height="51px" viewBox="0 0 36 51" version="1.1" xmlns="http://www.w3.org/2000/svg" xmlns:xlink="http://www.w3.org/1999/xlink">
    <!-- Generator: sketchtool 47.1 (45422) - http://www.bohemiancoding.com/sketch -->
    <title>084C6EEA-0AFA-4223-81ED-044B10640F4A</title>
    <desc>Created with sketchtool.</desc>
    <defs></defs>
    <g id="Page-1" stroke="none" stroke-width="1" fill="none" fill-rule="evenodd">
        <g id="Apple-TV-Copy-10" transform="translate(-172.000000, -173.000000)" fill="#B6CC4E">
            <g id="Page-1" transform="translate(172.000000, 173.000000)">
                <path d="M17,26.5019802 C13.3671583,26.5019802 10.4105217,23.3619362 10.4105217,19.4962596 C10.4105217,15.639934 13.3671583,12.4980198 17,12.4980198 C20.6328417,12.4980198 23.5894783,15.639934 23.5894783,19.4962596 C23.5894783,23.3619362 20.6328417,26.5019802 17,26.5019802 M17,11 C12.5905789,11 9,14.8133113 9,19.4962596 C9,24.1866887 12.5905789,28 17,28 C21.4094211,28 25,24.1866887 25,19.4962596 C25,14.8133113 21.4164649,11 17,11" id="Fill-1"></path>
                <g id="Group-5">
                    <path d="M17.60616,49.0603 C14.70996,45.3203 1.44216,27.7215222 1.44216,19.3027444 C1.44216,9.94707778 8.69076,2.34052222 17.60616,2.34052222 C26.52156,2.34052222 33.77016,9.94707778 33.77016,19.3027444 C33.77016,27.7215222 20.50236,45.3203 17.60616,49.0603 M17.60616,0.827522222 C7.89696,0.827522222 0.00036,9.12163333 0.00036,19.3027444 C0.00036,29.2496333 16.36236,49.8649667 17.05896,50.7357444 C17.19216,50.9057444 17.39556,51.0001889 17.60616,51.0001889 C17.81676,51.0001889 18.02196,50.9057444 18.16236,50.7357444 C18.85896,49.8649667 35.21196,29.2571889 35.21196,19.3027444 C35.21196,9.12163333 27.31716,0.827522222 17.60616,0.827522222" id="Fill-3"></path>
                </g>
            </g>
        </g>
    </g>
</svg>