<?xml version="1.0" encoding="UTF-8"?>
<svg width="37px" height="37px" viewBox="0 0 37 37" version="1.1" xmlns="http://www.w3.org/2000/svg" xmlns:xlink="http://www.w3.org/1999/xlink">
    <!-- Generator: sketchtool 47.1 (45422) - http://www.bohemiancoding.com/sketch -->
    <title>73526592-19BF-4ABC-9625-976AD48C1444</title>
    <desc>Created with sketchtool.</desc>
    <defs>
        <polygon id="path-1" points="0 37 0 0.635851852 36.3627778 0.635851852 36.3627778 37"></polygon>
    </defs>
    <g id="Page-1" stroke="none" stroke-width="1" fill="none" fill-rule="evenodd">
        <g id="Apple-TV-Copy-10" transform="translate(-621.000000, -178.000000)">
            <g id="Page-1" transform="translate(621.000000, 178.000000)">
                <g id="Group-3">
                    <mask id="mask-2" fill="white">
                        <use xlink:href="#path-1"></use>
                    </mask>
                    <g id="Clip-2"></g>
                    <path d="M34.928,18.8209407 C34.928,28.0531259 27.4156296,35.5654963 18.1793333,35.5654963 C8.94988889,35.5654963 1.44025926,28.0531259 1.44025926,18.8209407 C1.44025926,9.58738519 8.94988889,2.07501481 18.1793333,2.07501481 C27.4101481,2.07501481 34.9225185,9.58738519 34.928,18.8209407 M18.1793333,0.634755556 C8.15507407,0.634755556 0,8.79394074 0,18.8209407 C0,28.8438296 8.15507407,37.0002741 18.1793333,37.0002741 C28.2063333,37.0002741 36.3627778,28.8438296 36.3627778,18.8209407 C36.3627778,8.79394074 28.2063333,0.634755556 18.1793333,0.634755556" id="Fill-1" fill="#B6CC4E" mask="url(#mask-2)"></path>
                </g>
                <path d="M18.2289902,7 C17.8053746,7 17.4609121,7.32469617 17.4609121,7.72506306 L17.4609121,17.5540014 L10.7666124,17.5540014 C10.3429967,17.5540014 10,17.8773217 10,18.2749369 C10,18.673928 10.3429967,19 10.7666124,19 L18.2289902,19 C18.6540717,19 19,18.673928 19,18.2749369 L19,7.72506306 C19,7.32469617 18.6540717,7 18.2289902,7" id="Fill-4" fill="#B6CC4E"></path>
            </g>
        </g>
    </g>
</svg>