<?xml version="1.0" encoding="UTF-8"?>
<svg width="42px" height="43px" viewBox="0 0 42 43" version="1.1" xmlns="http://www.w3.org/2000/svg" xmlns:xlink="http://www.w3.org/1999/xlink">
    <!-- Generator: sketchtool 47.1 (45422) - http://www.bohemiancoding.com/sketch -->
    <title>5ECD6DD4-1C9D-4EA7-839E-D1A2E02BF524</title>
    <desc>Created with sketchtool.</desc>
    <defs></defs>
    <g id="Page-1" stroke="none" stroke-width="1" fill="none" fill-rule="evenodd">
        <g id="Apple-TV-Copy-9" transform="translate(-616.000000, -176.000000)" fill="#B6CC4E">
            <path d="M650.875863,201.021069 C650.875863,202.014528 650.071866,202.819068 649.077864,202.819068 C648.084404,202.819068 647.280407,202.014528 647.280407,201.021069 C647.280407,200.028695 648.084947,199.22307 649.077864,199.22307 C650.071866,199.22307 650.875863,200.029238 650.875863,201.021069 L650.875863,201.021069 Z M656.37192,204.516635 L648.381899,204.516635 C646.513869,204.516635 644.994364,202.998216 644.994364,201.129644 L644.994364,200.77949 C644.994364,198.91146 646.513869,197.391955 648.381899,197.391955 L656.37192,197.391955 L656.37192,204.516635 Z M654.336142,214.355143 C654.336142,215.702014 653.24008,216.798077 651.893752,216.798077 L620.071013,216.798077 C618.724142,216.798077 617.62808,215.702014 617.62808,214.355143 L617.62808,186.39984 C617.62808,185.053512 618.724142,183.956906 620.071013,183.956906 L629.237986,183.956906 L625.332549,186.128946 L620.580229,186.128946 C620.129644,186.128946 619.765375,186.493757 619.765375,186.943257 C619.765375,187.392757 620.129644,187.757025 620.580229,187.757025 L654.336142,187.757025 L654.336142,195.764418 L648.381899,195.764418 C645.616498,195.764418 643.366285,198.015717 643.366285,200.780575 L643.366285,201.130729 C643.366285,203.89613 645.616498,206.146343 648.381899,206.146343 L654.336142,206.146343 L654.336142,214.355143 Z M643.785384,177.731226 C644.167567,177.51679 644.681669,177.666624 644.892304,178.047178 L649.386759,186.12786 L628.684254,186.12786 L643.785384,177.731226 Z M651.893752,183.956906 C653.147791,183.956906 654.171652,184.90965 654.309542,186.128946 L651.249903,186.128946 L650.043094,183.956906 L651.893752,183.956906 Z M658,195.763876 L655.964765,195.763876 L655.964765,186.39984 C655.964765,184.155598 654.139079,182.328827 651.893752,182.328827 L649.136494,182.328827 L646.315177,177.256754 C645.885221,176.481529 645.06711,176 644.17951,176 C643.76584,176 643.355427,176.106403 642.992788,176.30781 L632.165706,182.328827 L620.071013,182.328827 C617.826229,182.328827 616,184.155598 616,186.39984 L616,214.355143 C616,216.599385 617.826229,218.426699 620.071013,218.426699 L651.893752,218.426699 C654.139079,218.426699 655.964765,216.599385 655.964765,214.355143 L655.964765,206.145258 L658,206.145258 L658,195.763876 Z" id="Fill-78"></path>
        </g>
    </g>
</svg>