<svg xmlns="http://www.w3.org/2000/svg" width="22" height="22" viewBox="0 0 22 22">
    <path fill-rule="evenodd" d="M6.258 17.075c0-.508.41-.916.917-.916h7.642c.508 0 .916.408.916.916a.914.914 0 0 1-.916.916H7.175a.917.917 0 0 1-.917-.916zm0-4.58c0-.507.41-.916.917-.916h7.642c.508 0 .916.409.916.916a.914.914 0 0 1-.916.916H7.175a.917.917 0 0 1-.917-.916zm11.915 7.673H3.828L1.995 9.402h18.006l-1.828 10.766zM10.998 1.832a5.832 5.832 0 0 1 5.827 5.733H5.171a5.832 5.832 0 0 1 5.827-5.733zm10.09 5.738h-2.426C18.613 3.385 15.194 0 10.998 0s-7.615 3.385-7.66 7.57H.912c-.858.067-.948.803-.903 1.068l2.139 12.599A.92.92 0 0 0 3.05 22h15.895c.449 0 .83-.323.902-.763l2.143-12.599c.045-.265-.063-1.005-.902-1.068z"/>
</svg>
