<?xml version="1.0" encoding="utf-8"?><svg xmlns="http://www.w3.org/2000/svg" xmlns:xlink="http://www.w3.org/1999/xlink"><symbol viewBox="0 0 505.145 505.145" id="android" xmlns="http://www.w3.org/2000/svg"><path d="M68.541 164.715h-1.294c-16.588 0-30.113 13.568-30.113 30.113v131.107c0 16.61 13.525 30.134 30.113 30.134h1.316c16.588 0 30.113-13.568 30.113-30.134V194.827c-.022-16.544-13.568-30.112-30.135-30.112zm44.544 211.825c0 15.229 12.446 27.632 27.675 27.632h29.574v70.817c0 16.631 13.568 30.156 30.113 30.156h1.294c16.61 0 30.156-13.546 30.156-30.156v-70.817h41.33v70.817c0 16.631 13.611 30.156 30.156 30.156h1.273c16.609 0 30.134-13.546 30.134-30.156v-70.817h29.595c15.207 0 27.654-12.403 27.654-27.632V169.525H113.085V376.54zM322.041 43.983l23.491-36.26c1.51-2.287.841-5.414-1.467-6.903-2.286-1.51-5.414-.884-6.903 1.467l-24.353 37.512c-18.27-7.485-38.676-11.691-60.226-11.691-21.571 0-41.934 4.206-60.247 11.691l-24.31-37.512C166.538-.064 163.388-.69 161.08.82c-2.308 1.488-2.977 4.616-1.467 6.903l23.512 36.26c-42.387 20.773-70.968 59.924-70.968 104.834 0 2.761.173 5.479.41 8.175H392.62c.237-2.696.388-5.414.388-8.175.001-44.91-28.602-84.061-70.967-104.834zm-134.386 64.928c-7.442 0-13.482-5.997-13.482-13.46 0-7.463 6.04-13.439 13.482-13.439 7.485 0 13.482 5.975 13.482 13.439s-6.04 13.46-13.482 13.46zm129.835 0c-7.442 0-13.482-5.997-13.482-13.46 0-7.463 6.04-13.439 13.482-13.439 7.463 0 13.46 5.975 13.46 13.439 0 7.463-5.997 13.46-13.46 13.46zm120.386 55.804h-1.251c-16.588 0-30.156 13.568-30.156 30.113v131.107c0 16.61 13.59 30.134 30.156 30.134h1.273c16.609 0 30.113-13.568 30.113-30.134V194.827c0-16.544-13.547-30.112-30.135-30.112z"/></symbol><symbol viewBox="0 0 305 305" id="apple" xmlns="http://www.w3.org/2000/svg"><path d="M40.738 112.119c-25.785 44.745-9.393 112.648 19.121 153.82C74.092 286.523 88.502 305 108.239 305c.372 0 .745-.007 1.127-.022 9.273-.37 15.974-3.225 22.453-5.984 7.274-3.1 14.797-6.305 26.597-6.305 11.226 0 18.39 3.101 25.318 6.099 6.828 2.954 13.861 6.01 24.253 5.815 22.232-.414 35.882-20.352 47.925-37.941 12.567-18.365 18.871-36.196 20.998-43.01l.086-.271a2.5 2.5 0 0 0-1.328-3.066c-.032-.015-.15-.064-.183-.078-3.915-1.601-38.257-16.836-38.618-58.36-.335-33.736 25.763-51.601 30.997-54.839l.244-.152a2.498 2.498 0 0 0 .71-3.511c-18.014-26.362-45.624-30.335-56.74-30.813a50.043 50.043 0 0 0-4.95-.242c-13.056 0-25.563 4.931-35.611 8.893-6.936 2.735-12.927 5.097-17.059 5.097-4.643 0-10.668-2.391-17.645-5.159-9.33-3.703-19.905-7.899-31.1-7.899-.267 0-.53.003-.789.008-26.03.383-50.626 15.275-64.186 38.859z"/><path d="M212.101.002c-15.763.642-34.672 10.345-45.974 23.583-9.605 11.127-18.988 29.679-16.516 48.379a2.499 2.499 0 0 0 2.284 2.164c1.064.083 2.15.125 3.232.126 15.413 0 32.04-8.527 43.395-22.257 11.951-14.498 17.994-33.104 16.166-49.77a2.515 2.515 0 0 0-2.587-2.225z"/></symbol><symbol viewBox="0 0 22 22" id="cart" xmlns="http://www.w3.org/2000/svg"><path fill-rule="evenodd" d="M6.258 17.075c0-.508.41-.916.917-.916h7.642c.508 0 .916.408.916.916a.914.914 0 0 1-.916.916H7.175a.917.917 0 0 1-.917-.916zm0-4.58c0-.507.41-.916.917-.916h7.642c.508 0 .916.409.916.916a.914.914 0 0 1-.916.916H7.175a.917.917 0 0 1-.917-.916zm11.915 7.673H3.828L1.995 9.402h18.006l-1.828 10.766zM10.998 1.832a5.832 5.832 0 0 1 5.827 5.733H5.171a5.832 5.832 0 0 1 5.827-5.733zm10.09 5.738h-2.426C18.613 3.385 15.194 0 10.998 0s-7.615 3.385-7.66 7.57H.912c-.858.067-.948.803-.903 1.068l2.139 12.599A.92.92 0 0 0 3.05 22h15.895c.449 0 .83-.323.902-.763L21.99 8.638c.045-.265-.063-1.005-.902-1.068z"/></symbol><symbol viewBox="0 0 46 46" id="clock" xmlns="http://www.w3.org/2000/svg"><g fill="#B6CC4E" fill-rule="evenodd"><path d="M.766 24a.772.772 0 0 0 .765-.775c0-11.953 9.603-21.674 21.41-21.674A21.13 21.13 0 0 1 36.17 6.19h-4.051a.771.771 0 0 0-.766.775.77.77 0 0 0 .766.775h6.053a.882.882 0 0 0 .145 0H39V.775A.772.772 0 0 0 38.234 0a.772.772 0 0 0-.765.775v4.498C33.373 1.864 28.28 0 22.94 0 10.29 0 0 10.418 0 23.225c0 .426.343.775.766.775"/><path d="M23 38.453c-8.522 0-15.452-6.93-15.452-15.453 0-8.522 6.93-15.453 15.452-15.453S38.453 14.477 38.453 23 31.523 38.453 23 38.453M23 6C13.63 6 6 13.629 6 23s7.63 17 17 17c9.371 0 17-7.629 17-17S32.371 6 23 6"/><path d="M23 11c.55 0 1-.337 1-.751V8.75c0-.417-.45-.75-1-.75s-1 .333-1 .751v1.498c0 .414.45.751 1 .751m0 23c-.55 0-1 .337-1 .751v1.498c0 .417.45.751 1 .751s1-.334 1-.751V34.75c0-.414-.45-.751-1-.751M34.75 24h1.499c.414 0 .751-.45.751-1s-.337-1-.751-1H34.75c-.414 0-.751.45-.751 1s.337 1 .75 1m-24.5-2H8.75c-.413 0-.75.45-.75 1s.337 1 .751 1h1.498c.414 0 .751-.45.751-1s-.337-1-.751-1m12.752 1.274c-.828 0-1.501-.695-1.501-1.547 0-.853.673-1.543 1.501-1.543.828 0 1.502.69 1.502 1.543 0 .852-.674 1.547-1.502 1.547m.751-4.528v-3.972a.765.765 0 0 0-.75-.774.764.764 0 0 0-.752.774v3.972a3.072 3.072 0 0 0-2.248 2.98c0 .574.162 1.102.425 1.562L14.22 29.68a.789.789 0 0 0 0 1.093.737.737 0 0 0 1.062 0l6.207-6.394c.443.272.955.437 1.512.437 1.655 0 2.999-1.384 2.999-3.09a3.072 3.072 0 0 0-2.248-2.98M10.6 40.2a.994.994 0 0 0-1.4.21.993.993 0 0 0 .21 1.4c.17.132.379.19.59.19a.985.985 0 0 0 .81-.4c.318-.44.23-1.072-.21-1.4m-4.786-4.786a1.013 1.013 0 0 0-1.398-.23c-.447.332-.55.95-.23 1.397.202.268.499.419.82.419a1.006 1.006 0 0 0 .808-1.586m.52 1.837a.993.993 0 0 0-.079 1.408.969.969 0 0 0 .753.341.983.983 0 0 0 .658-.249 1 1 0 0 0 .079-1.412c-.357-.42-.986-.45-1.41-.088"/><path d="M8.677 38.26A1 1 0 1 0 7.998 40c.27 0 .537-.107.738-.317a.999.999 0 0 0-.059-1.412v-.01zM4.87 33.503h-.01a.98.98 0 0 0-1.356-.366.986.986 0 0 0-.37 1.359.99.99 0 0 0 1.355.37.997.997 0 0 0 .38-1.363M44.96 25H45a1 1 0 0 0 1-.957.993.993 0 0 0-.96-1.042A1 1 0 0 0 44.96 25M1.105 26a.995.995 0 0 0 .888-1.1 1 1 0 0 0-1.098-.894.99.99 0 0 0-.888 1.095.995.995 0 0 0 .99.899h.108zm.103 2.98a.985.985 0 0 0 .768-1.18.985.985 0 0 0-1.179-.776.99.99 0 0 0-.773 1.187.99.99 0 0 0 .973.789c.07 0 .137 0 .211-.02m2.708 2.612c-.22-.496-.81-.73-1.318-.507a.998.998 0 0 0-.515 1.315c.171.366.533.6.925.6.126 0 .269-.03.395-.092a1 1 0 0 0 .513-1.316M2.951 29.7a.989.989 0 0 0-1.252-.651A.998.998 0 1 0 1.997 31c.103 0 .21-.01.313-.04.519-.17.812-.743.641-1.26M23.017 44a1 1 0 0 0-1.017.98.992.992 0 0 0 .978 1.02h.02A.993.993 0 0 0 24 45.02a1.005 1.005 0 0 0-.983-1.02m18.593-7.792a.998.998 0 0 0-1.4.182c-.337.43-.26 1.063.17 1.4a1.004 1.004 0 0 0 1.411-.182.998.998 0 0 0-.18-1.4m-6.181 3.969a.992.992 0 0 0-.249 1.388.974.974 0 0 0 .822.435c.194 0 .386-.054.566-.171a.996.996 0 0 0 .249-1.393.991.991 0 0 0-1.388-.26"/><path d="M36.35 39.238c-.42.361-.468.991-.112 1.411.199.229.483.351.76.351a.999.999 0 0 0 .762-1.65 1.003 1.003 0 0 0-1.41-.112m6.18-5.09a1.01 1.01 0 0 0-1.38.323c-.287.47-.151 1.09.317 1.378.171.102.352.151.532.151a.993.993 0 0 0 .849-.47 1.005 1.005 0 0 0-.317-1.382m-4.249 3.161a.99.99 0 0 0 .03 1.413c.19.185.438.278.693.278a.969.969 0 0 0 .717-.313 1 1 0 0 0-.03-1.413 1 1 0 0 0-1.41.035m6.857-12.299a1.006 1.006 0 0 0-1.128.85.988.988 0 0 0 .992 1.14 1 1 0 0 0 .136-1.99"/><path d="M45.247 27.029a1.02 1.02 0 0 0-1.22.725c-.127.54.2 1.081.73 1.217a1.006 1.006 0 0 0 1.211-.725 1.003 1.003 0 0 0-.721-1.217m-32.733 14.11a.996.996 0 0 0-1.366.35.99.99 0 0 0 .849 1.511c.336 0 .668-.17.858-.491a.997.997 0 0 0-.34-1.37m31.83-11.077a.994.994 0 0 0-1.282.598.986.986 0 0 0 .592 1.278.992.992 0 0 0 1.283-.6.986.986 0 0 0-.593-1.276m-.909 2.036a1.004 1.004 0 0 0-1.336.464c-.24.498-.03 1.098.458 1.336a1.008 1.008 0 0 0 1.342-.458 1.004 1.004 0 0 0-.464-1.342m-23.314 11.91a1.001 1.001 0 0 0-1.114.874.988.988 0 0 0 .87 1.108V46H20a1 1 0 0 0 .122-1.992m-3.793-.953a1.001 1.001 0 0 0-1.277.62c-.175.523.103 1.09.621 1.271.113.029.22.054.333.054.41 0 .802-.264.939-.674a.994.994 0 0 0-.616-1.27"/><path d="M18.225 44.025a1.003 1.003 0 0 0-1.202.756 1.009 1.009 0 0 0 .752 1.2.918.918 0 0 0 .23.019.987.987 0 0 0 .966-.769.995.995 0 0 0-.746-1.206m-3.797-1.928a.995.995 0 0 0-1.335.48c-.23.504-.02 1.106.484 1.33a.998.998 0 0 0 1.33-.489.993.993 0 0 0-.48-1.32m12.389 1.918c-.541.103-.897.63-.8 1.172.093.48.522.812.99.812.058 0 .121 0 .18-.01.535-.113.896-.635.798-1.173a1.002 1.002 0 0 0-1.168-.8m1.897-.973c-.531.147-.827.71-.672 1.245a1.004 1.004 0 0 0 1.246.672c.53-.162.827-.726.672-1.255a.999.999 0 0 0-1.246-.662m2.904.032c-.512.21-.75.802-.54 1.316a1 1 0 0 0 .915.608c.133 0 .264-.02.391-.07a1.003 1.003 0 1 0-.767-1.855"/><path d="M24.915 44.003a.991.991 0 0 0-.91 1.08 1 1 0 0 0 1.003.917h.079v-.01a.98.98 0 0 0 .91-1.07 1.007 1.007 0 0 0-1.082-.917m8.61-1.879a.985.985 0 0 0-.4 1.35.997.997 0 0 0 .878.526c.16 0 .323-.04.474-.132a.974.974 0 0 0 .395-1.345.984.984 0 0 0-1.347-.399"/></g></symbol><symbol viewBox="0 0 35 33" id="coins" xmlns="http://www.w3.org/2000/svg"><defs><path id="ea" d="M16.986 33H0V.062h16.986z"/><path id="ec" d="M.014 20H17V.036H.014V20z"/></defs><g fill-rule="evenodd"><mask id="eb"><use xlink:href="#ea"/></mask><path d="M8.493 8.014c-4.402 0-7.36-1.76-7.36-3.41 0-1.644 2.958-3.412 7.36-3.412s7.36 1.761 7.36 3.411c0 1.65-2.958 3.411-7.36 3.411zm7.36 0c0 1.643-2.958 3.411-7.36 3.411s-7.36-1.768-7.36-3.41V6.897C2.585 8.256 5.307 9.15 8.493 9.15s5.909-.894 7.36-2.253v1.116zm0 3.411c0 1.643-2.958 3.411-7.36 3.411s-7.36-1.768-7.36-3.41v-1.117c1.452 1.359 4.174 2.253 7.36 2.253s5.909-.894 7.36-2.253v1.116zm0 3.404c0 1.643-2.958 3.411-7.36 3.411s-7.36-1.76-7.36-3.41v-1.117c1.452 1.359 4.174 2.253 7.36 2.253s5.909-.894 7.36-2.253v1.116zm0 3.411c0 1.643-2.958 3.411-7.36 3.411s-7.36-1.768-7.36-3.41v-1.117c1.452 1.352 4.174 2.253 7.36 2.253s5.909-.894 7.36-2.253v1.116zm0 3.404c0 1.643-2.958 3.411-7.36 3.411s-7.36-1.76-7.36-3.41v-1.117c1.452 1.359 4.174 2.253 7.36 2.253s5.909-.894 7.36-2.253v1.116zm0 3.411c0 1.643-2.958 3.411-7.36 3.411s-7.36-1.768-7.36-3.411v-1.116c1.452 1.359 4.174 2.253 7.36 2.253s5.909-.894 7.36-2.253v1.116zm0 3.411c0 1.643-2.958 3.41-7.36 3.41s-7.36-1.767-7.36-3.41V27.35c1.452 1.359 4.174 2.253 7.36 2.253s5.909-.894 7.36-2.253v1.116zM8.493.062C3.732.062 0 2.06 0 4.603V28.46C0 31.01 3.732 33 8.493 33s8.493-1.997 8.493-4.541V4.603c0-2.544-3.732-4.54-8.493-4.54z" mask="url(#eb)"/><g transform="translate(18 13)"><mask id="ed"><use xlink:href="#ec"/></mask><path d="M8.507 8.258c-4.402 0-7.36-1.82-7.36-3.527 0-1.699 2.958-3.527 7.36-3.527s7.36 1.821 7.36 3.527c0 1.706-2.958 3.527-7.36 3.527zm7.36 0c0 1.699-2.958 3.527-7.36 3.527s-7.36-1.82-7.36-3.527V7.104c1.451 1.405 4.174 2.33 7.36 2.33s5.908-.925 7.36-2.33v1.154zm0 3.527c0 1.699-2.958 3.527-7.36 3.527s-7.36-1.82-7.36-3.527v-1.154c1.451 1.405 4.174 2.33 7.36 2.33s5.908-.925 7.36-2.33v1.154zm0 3.527c0 1.699-2.958 3.527-7.36 3.527s-7.36-1.821-7.36-3.527v-1.154c1.451 1.405 4.174 2.33 7.36 2.33s5.908-.925 7.36-2.33v1.154zM8.507.036C3.746.036.014 2.1.014 4.73v10.574C.014 17.943 3.746 20 8.507 20S17 17.943 17 15.312V4.738C17 2.1 13.268.036 8.507.036z" mask="url(#ed)"/></g></g></symbol><symbol viewBox="0 0 62 40" id="copter" xmlns="http://www.w3.org/2000/svg"><defs><path id="fa" d="M0 0v40h62V0H0z"/></defs><g fill="none" fill-rule="evenodd"><mask id="fb" fill="#fff"><use xlink:href="#fa"/></mask><path d="M38.034 38.03v-6.284c1.528.602 3.158.912 4.804.916a17.59 17.59 0 0 0 7.207-1.704v7.072h-12.01zm-6.246-18.183v-.679a.98.98 0 0 0-.5-.917l-8.177-4.63a1.017 1.017 0 0 0-.5-.127H10.46V8.962h31.398v9.19c0 .545.448.986 1 .986h13.913c.031.232.052.465.06.699 0 5.861-7.677 10.835-14.013 10.835-6.08-.027-10.998-4.88-11.01-10.864l-.02.039zM2.002 3.102L8.438 8.4v5.053H2.002V3.102zM56.28 17.138H43.86V8.982c5.074.404 10.699 3.812 12.42 8.156zm5.185 16.145a1.008 1.008 0 0 0-1.331.472s-1.932 3.852-8.008 4.236v-8.137c3.844-2.343 6.747-5.978 6.747-10.076 0-7.111-8.739-12.806-16.015-12.806h-1.16V1.98h16.494a.993.993 0 0 0 1-.986.993.993 0 0 0-1-.984H23.16a.993.993 0 0 0-1.001.984c0 .544.448.986 1 .986h16.536v4.984H9.829L1.662.245a1.012 1.012 0 0 0-1.413.09A.979.979 0 0 0 0 .993V14.45c0 .544.448.985 1.001.985H22.4l7.407 4.196v.187c-.003 4.464 2.356 8.606 6.225 10.934v7.28h-9.148c-.553 0-1 .44-1 .984s.447.985 1 .985h24.162c8.167 0 10.75-5.191 10.85-5.407a.977.977 0 0 0-.431-1.31z" fill="#B6CC4E" mask="url(#fb)"/></g></symbol><symbol viewBox="0 0 512 512" id="inst" xmlns="http://www.w3.org/2000/svg"><path d="M352 0H160C71.648 0 0 71.648 0 160v192c0 88.352 71.648 160 160 160h192c88.352 0 160-71.648 160-160V160C512 71.648 440.352 0 352 0zm112 352c0 61.76-50.24 112-112 112H160c-61.76 0-112-50.24-112-112V160C48 98.24 98.24 48 160 48h192c61.76 0 112 50.24 112 112v192z"/><path d="M256 128c-70.688 0-128 57.312-128 128s57.312 128 128 128 128-57.312 128-128-57.312-128-128-128zm0 208c-44.096 0-80-35.904-80-80 0-44.128 35.904-80 80-80s80 35.872 80 80c0 44.096-35.904 80-80 80z"/><circle cx="393.6" cy="118.4" r="17.056"/></symbol><symbol viewBox="0 0 224 29" id="logo" xmlns="http://www.w3.org/2000/svg"><path d="M25.946 7H2.054C.921 7 0 7.852 0 8.904c0 1.051.921 1.905 2.054 1.905h3.217v15.843C5.271 27.949 6.406 29 7.805 29c1.397 0 2.532-1.05 2.532-2.348V10.809H14.1v15.843c0 1.297 1.136 2.348 2.534 2.348 1.4 0 2.534-1.05 2.534-2.348V10.809h3.763v15.843c0 1.297 1.134 2.348 2.534 2.348S28 27.95 28 26.652V9.349c0-.077-.017-.148-.024-.223.01-.074.024-.146.024-.222C28 7.852 27.08 7 25.946 7m16.718.004L42.66 7h-7.987l-.012.03c-.096-.013-.191-.03-.29-.03A2.358 2.358 0 0 0 32 9.349v17.303A2.358 2.358 0 0 0 34.37 29a2.36 2.36 0 0 0 2.37-2.348V21.3h5.866l.001-.002.022.002c1.31 0 2.371-1.05 2.371-2.349V9.072c-.009.002-.019.003-.027.006a2.352 2.352 0 0 0-2.31-2.074zm-5.925 10.49h3.522v-6.685h-3.522v6.684zM61.622 7c-1.312 0-2.377 1.05-2.377 2.349v7.933l-3.49 3.449V9.349C55.756 8.05 54.693 7 53.38 7S51 8.05 51 9.349v17.303C51 27.949 52.067 29 53.379 29c.36 0 .699-.086 1.005-.228.353-.119.687-.308.969-.586l.77-.763 3.122-3.085v2.314c0 1.297 1.065 2.348 2.377 2.348C62.935 29 64 27.95 64 26.652V9.349C64 8.05 62.935 7 61.622 7m112.041.003a.007.007 0 0 0-.003-.002L173.08 7h-7.408l-.011.03c-.097-.013-.191-.03-.29-.03A2.358 2.358 0 0 0 163 9.349v17.303A2.359 2.359 0 0 0 165.37 29a2.358 2.358 0 0 0 2.37-2.348V21.3h5.866l.002-.002.022.002c1.309 0 2.37-1.05 2.37-2.349V9.072c-.009.002-.019.003-.027.006a2.352 2.352 0 0 0-2.31-2.075zm-5.924 10.49h3.522V10.81h-3.522v6.684zM153.629 7c-1.31 0-2.37 1.05-2.37 2.349v8.144h-3.521V9.142c-.009-.009-.015-.02-.024-.027A2.352 2.352 0 0 0 145.368 7a2.353 2.353 0 0 0-2.34 2.078L143 9.072v9.881a2.359 2.359 0 0 0 2.368 2.348l.024-.002.001.001h5.867v3.848h-6.337A1.913 1.913 0 0 0 143 27.054c0 1.052.86 1.904 1.923 1.904h8.28A2.36 2.36 0 0 0 156 26.652V9.349A2.359 2.359 0 0 0 153.629 7m-43.721.028l-.02-.028h-8.519A2.358 2.358 0 0 0 99 9.349v17.303A2.359 2.359 0 0 0 101.37 29a2.358 2.358 0 0 0 2.368-2.348v-5.351h3.524v5.351A2.357 2.357 0 0 0 109.63 29a2.36 2.36 0 0 0 2.37-2.348V9.35c0-1.204-.916-2.184-2.092-2.321zm-6.17 10.465h3.524V10.81h-3.524v6.684zm88.17-10.465l-.02-.028h-8.519A2.358 2.358 0 0 0 181 9.349v17.303A2.358 2.358 0 0 0 183.37 29a2.358 2.358 0 0 0 2.369-2.348v-5.351h3.523v5.351A2.357 2.357 0 0 0 191.63 29c1.309 0 2.37-1.05 2.37-2.348V9.35c0-1.205-.916-2.184-2.092-2.321zm-6.169 10.465h3.523V10.81h-3.523v6.684zm30.223-10.477h-14.285c-.056-.004-.11-.016-.166-.016-.057 0-.11.012-.166.016h-.106l-.008.01C199.978 7.159 199 8.139 199 9.345v9.589c0 1.294 1.125 2.342 2.511 2.342.02 0 .039-.005.058-.005v.005h2.402l-3.229 3.01-.768.717a2.234 2.234 0 0 0 0 3.313c.981.913 2.57.913 3.551 0l.767-.717 3.562-3.323v2.335c0 1.294 1.124 2.341 2.51 2.341 1.389 0 2.51-1.047 2.51-2.341V10.813h3.088c1.126 0 2.038-.85 2.038-1.899 0-1.05-.912-1.898-2.038-1.898zm-8.108 10.463h-3.833v-6.666h3.833v6.666zM135.548 7a2.5 2.5 0 0 0-1.74.693c-.007-.004-.015-.005-.022-.008l-6.838 6.55-6.453-6.183A2.475 2.475 0 0 0 118.452 7C117.098 7 116 8.05 116 9.349v17.303c0 1.297 1.098 2.348 2.452 2.348 1.355 0 2.451-1.05 2.451-2.348V13.83l3.656 3.503v1.731c0 1.298 1.098 2.349 2.452 2.349 1.354 0 2.453-1.051 2.453-2.349v-1.853l3.63-3.478v12.919c0 1.297 1.098 2.348 2.454 2.348 1.354 0 2.452-1.05 2.452-2.348V9.349C138 8.05 136.902 7 135.548 7M82.114 7c-.731 0-1.36.41-1.685 1.006-.27.38-.429.842-.429 1.343v17.303c0 .5.16.961.429 1.342A1.918 1.918 0 0 0 82.114 29H93c-.004-.02-.003-.04-.005-.06H93v-5.29c0-1.296-1.062-2.348-2.372-2.348a2.359 2.359 0 0 0-2.368 2.349v1.541h-3.52V10.81h3.52v1.345a2.359 2.359 0 0 0 2.368 2.348c1.31 0 2.372-1.052 2.372-2.348v-5.04a.187.187 0 0 0-.011.008c.003-.04.013-.081.01-.122H82.115zm137.861-4.871h.579c.461 0 .717.345.727.614.01.287-.276.594-.727.594h-.579V2.129zm1.963.614c-.01-.825-.599-1.199-1.384-1.199h-1.277v3.807h.698V3.912h.245l1.12 1.439h.815l-1.189-1.468c.61-.114.972-.507.972-1.14zm-1.453 3.605c1.581 0 2.799-1.247 2.799-2.848 0-1.601-1.218-2.848-2.799-2.848-1.56 0-2.769 1.247-2.769 2.848 0 1.601 1.208 2.848 2.77 2.848zm0-6.348A3.49 3.49 0 0 1 224 3.5a3.49 3.49 0 0 1-3.515 3.5A3.478 3.478 0 0 1 217 3.5c0-1.947 1.551-3.5 3.485-3.5z" fill="#BAD341" fill-rule="evenodd"/></symbol><symbol viewBox="0 0 95.481 95.481" id="ok" xmlns="http://www.w3.org/2000/svg"><path d="M43.041 67.254c-7.402-.772-14.076-2.595-19.79-7.064-.709-.556-1.441-1.092-2.088-1.713-2.501-2.402-2.753-5.153-.774-7.988 1.693-2.426 4.535-3.075 7.489-1.682.572.27 1.117.607 1.639.969 10.649 7.317 25.278 7.519 35.967.329 1.059-.812 2.191-1.474 3.503-1.812 2.551-.655 4.93.282 6.299 2.514 1.564 2.549 1.544 5.037-.383 7.016-2.956 3.034-6.511 5.229-10.461 6.761-3.735 1.448-7.826 2.177-11.875 2.661.611.665.899.992 1.281 1.376 5.498 5.524 11.02 11.025 16.5 16.566 1.867 1.888 2.257 4.229 1.229 6.425-1.124 2.4-3.64 3.979-6.107 3.81-1.563-.108-2.782-.886-3.865-1.977-4.149-4.175-8.376-8.273-12.441-12.527-1.183-1.237-1.752-1.003-2.796.071-4.174 4.297-8.416 8.528-12.683 12.735-1.916 1.889-4.196 2.229-6.418 1.15-2.362-1.145-3.865-3.556-3.749-5.979.08-1.639.886-2.891 2.011-4.014 5.441-5.433 10.867-10.88 16.295-16.322.359-.362.694-.746 1.217-1.305z"/><path d="M47.55 48.329c-13.205-.045-24.033-10.992-23.956-24.218C23.67 10.739 34.505-.037 47.84 0c13.362.036 24.087 10.967 24.02 24.478-.068 13.199-10.971 23.897-24.31 23.851zm12.001-24.186c-.023-6.567-5.253-11.795-11.807-11.801-6.609-.007-11.886 5.316-11.835 11.943.049 6.542 5.324 11.733 11.896 11.709 6.552-.023 11.768-5.285 11.746-11.851z"/></symbol><symbol viewBox="0 0 43 43" id="phone" xmlns="http://www.w3.org/2000/svg"><defs><path id="ja" d="M42.62.389H0V43h42.62z"/></defs><g fill="none" fill-rule="evenodd"><mask id="jb" fill="#fff"><use xlink:href="#ja"/></mask><path d="M38.108 39.865c-.287.274-.566.539-.826.799-1.315 1.315-4.766 1.182-8.797-.337-4.975-1.876-10.408-5.606-15.308-10.503C8.28 24.93 4.55 19.492 2.674 14.51c-1.52-4.024-1.653-7.482-.344-8.79.267-.26.534-.546.812-.833C4.509 3.444 6.053 1.82 7.768 1.82h.111c1.204.049 2.507.93 3.866 2.618 4.05 5.045 2.623 6.452.242 8.797l-.453.448c-1.905 1.903.041 5.613 6.102 11.674 2.457 2.457 4.571 4.268 6.278 5.383 2.471 1.601 4.284 1.847 5.397.727l.462-.462c2.337-2.365 3.743-3.8 8.79.252 1.686 1.35 2.568 2.652 2.618 3.865.07 1.754-1.597 3.343-3.073 4.743m1.358-9.722c-6.054-4.87-8.216-2.68-10.716-.147l-.455.455c-.749.756-2.575-.25-3.596-.915-1.632-1.056-3.66-2.8-6.047-5.187-7.308-7.307-6.523-9.23-6.111-9.645l.455-.448c2.54-2.504 4.732-4.66-.13-10.714C11.211 1.491 9.6.455 7.937.392 5.57.287 3.708 2.206 2.1 3.9c-.267.28-.525.553-.785.804-1.755 1.765-1.755 5.62.016 10.31 1.953 5.165 5.797 10.785 10.835 15.823 5.04 5.035 10.65 8.882 15.817 10.827 2.35.89 4.491 1.337 6.27 1.337 1.763 0 3.163-.44 4.044-1.322.253-.253.525-.504.8-.77 1.692-1.61 3.617-3.437 3.52-5.843-.07-1.667-1.1-3.277-3.15-4.922" fill="#B6CC4E" mask="url(#jb)"/><path d="M33.646 16.955a.653.653 0 0 0 .85-.367c1.034-2.604.447-5.566-1.496-7.549-1.986-2.04-5.046-2.616-7.616-1.425a.677.677 0 0 0-.326.89.649.649 0 0 0 .862.332 5.454 5.454 0 0 1 6.16 1.146 5.744 5.744 0 0 1 1.208 6.102c-.14.34.026.727.358.87" fill="#B6CC4E"/><path d="M23.028 2.55c4.94-2.184 10.839-1.137 14.67 2.612 3.735 3.646 4.87 9.086 2.882 13.87-.156.36.03.775.398.92a.755.755 0 0 0 .277.048.729.729 0 0 0 .674-.436c2.2-5.31.952-11.36-3.2-15.407-4.26-4.166-10.811-5.33-16.304-2.904-.361.16-.525.582-.361.935.168.362.595.513.964.362" fill="#B6CC4E"/></g></symbol><symbol viewBox="0 0 12 15" id="pin" xmlns="http://www.w3.org/2000/svg"><path fill-rule="evenodd" d="M5.522 8.39a2.872 2.872 0 0 1-2.869-2.868 2.872 2.872 0 0 1 2.87-2.869A2.872 2.872 0 0 1 8.39 5.522 2.872 2.872 0 0 1 5.522 8.39m0-8.391A5.529 5.529 0 0 0 0 5.522c0 .794.163 1.553.483 2.255 1.38 3.02 4.028 6.21 4.807 7.116a.302.302 0 0 0 .232.107c.09 0 .175-.038.233-.107.778-.905 3.426-4.095 4.807-7.116.32-.702.483-1.46.483-2.255A5.53 5.53 0 0 0 5.522 0"/></symbol><symbol viewBox="0 0 510.127 510.127" id="rub" xmlns="http://www.w3.org/2000/svg"><path d="M34.786 428.963h81.158v69.572c0 3.385 1.083 6.156 3.262 8.322 2.173 2.18 4.951 3.27 8.335 3.27h60.502c3.14 0 5.857-1.09 8.152-3.27 2.295-2.166 3.439-4.938 3.439-8.322v-69.572h182.964c3.377 0 6.156-1.076 8.334-3.256 2.18-2.178 3.262-4.951 3.262-8.336v-46.377c0-3.365-1.082-6.156-3.262-8.322-2.172-2.18-4.957-3.27-8.334-3.27h-182.97v-42.754h123.184c48.305 0 87.73-14.719 118.293-44.199 30.551-29.449 45.834-67.49 45.834-114.125 0-46.604-15.283-84.646-45.834-114.125C410.548 14.749 371.116 0 322.812 0H127.535c-3.385 0-6.157 1.089-8.335 3.256-2.173 2.179-3.262 4.969-3.262 8.335v227.896H34.786c-3.384 0-6.157 1.145-8.335 3.439-2.172 2.295-3.262 5.012-3.262 8.151v53.978c0 3.385 1.083 6.158 3.262 8.336 2.179 2.18 4.945 3.256 8.335 3.256h81.158v42.754H34.786c-3.384 0-6.157 1.09-8.335 3.27-2.172 2.166-3.262 4.951-3.262 8.322v46.377c0 3.385 1.083 6.158 3.262 8.336 2.178 2.181 4.95 3.257 8.335 3.257zM199.628 77.179h115.938c25.6 0 46.248 7.485 61.953 22.46 15.697 14.976 23.549 34.547 23.549 58.691 0 24.156-7.852 43.733-23.549 58.691-15.705 14.988-36.354 22.473-61.953 22.473H199.628V77.179z"/></symbol><symbol viewBox="0 0 37 37" id="thin-clock" xmlns="http://www.w3.org/2000/svg"><defs><path id="ma" d="M0 37V.636h36.363V37z"/></defs><g fill="none" fill-rule="evenodd"><mask id="mb" fill="#fff"><use xlink:href="#ma"/></mask><path d="M34.928 18.82c0 9.233-7.512 16.745-16.749 16.745-9.23 0-16.739-7.512-16.739-16.744 0-9.234 7.51-16.746 16.74-16.746 9.23 0 16.743 7.512 16.748 16.746M18.179.635C8.155.635 0 8.794 0 18.82 0 28.844 8.155 37 18.18 37c10.026 0 18.183-8.157 18.183-18.18C36.363 8.794 28.206.635 18.179.635" fill="#B6CC4E" mask="url(#mb)"/><path d="M18.229 7c-.424 0-.768.325-.768.725v9.829h-6.694c-.424 0-.767.323-.767.72 0 .4.343.726.767.726h7.462c.425 0 .771-.326.771-.725V7.725c0-.4-.346-.725-.771-.725" fill="#B6CC4E"/></g></symbol><symbol viewBox="0 0 36 51" id="thin-pin" xmlns="http://www.w3.org/2000/svg"><g fill="#B6CC4E" fill-rule="evenodd"><path d="M17 26.502c-3.633 0-6.59-3.14-6.59-7.006 0-3.856 2.957-6.998 6.59-6.998s6.59 3.142 6.59 6.998c0 3.866-2.957 7.006-6.59 7.006M17 11c-4.41 0-8 3.813-8 8.496C9 24.186 12.59 28 17 28s8-3.813 8-8.504C25 14.813 21.416 11 17 11"/><path d="M17.606 49.06C14.71 45.32 1.442 27.722 1.442 19.303c0-9.356 7.249-16.962 16.164-16.962 8.916 0 16.164 7.606 16.164 16.962 0 8.419-13.268 26.017-16.164 29.757m0-48.232C7.897.828 0 9.122 0 19.303c0 9.947 16.362 30.562 17.06 31.433.133.17.337.264.547.264.21 0 .416-.094.556-.264.697-.871 17.05-21.479 17.05-31.433C35.212 9.122 27.317.828 17.606.828"/></g></symbol><symbol viewBox="0 0 548.358 548.358" id="vk" xmlns="http://www.w3.org/2000/svg"><path d="M545.451 400.298c-.664-1.431-1.283-2.618-1.858-3.569-9.514-17.135-27.695-38.167-54.532-63.102l-.567-.571-.284-.28-.287-.287h-.288c-12.18-11.611-19.893-19.418-23.123-23.415-5.91-7.614-7.234-15.321-4.004-23.13 2.282-5.9 10.854-18.36 25.696-37.397 7.807-10.089 13.99-18.175 18.556-24.267 32.931-43.78 47.208-71.756 42.828-83.939l-1.701-2.847c-1.143-1.714-4.093-3.282-8.846-4.712-4.764-1.427-10.853-1.663-18.278-.712l-82.224.568c-1.332-.472-3.234-.428-5.712.144l-3.713.859-1.431.715-1.136.859c-.952.568-1.999 1.567-3.142 2.995-1.137 1.423-2.088 3.093-2.848 4.996-8.952 23.031-19.13 44.444-30.553 64.238-7.043 11.803-13.511 22.032-19.418 30.693-5.899 8.658-10.848 15.037-14.842 19.126-4 4.093-7.61 7.372-10.852 9.849-3.237 2.478-5.708 3.525-7.419 3.142-1.715-.383-3.33-.763-4.859-1.143-2.663-1.714-4.805-4.045-6.42-6.995-1.622-2.95-2.714-6.663-3.285-11.136-.568-4.476-.904-8.326-1-11.563-.089-3.233-.048-7.806.145-13.706.198-5.903.287-9.897.287-11.991 0-7.234.141-15.085.424-23.555.288-8.47.521-15.181.716-20.125.194-4.949.284-10.185.284-15.705s-.336-9.849-1-12.991a44.442 44.442 0 0 0-2.99-9.137c-1.335-2.95-3.289-5.232-5.853-6.852-2.569-1.618-5.763-2.902-9.564-3.856-10.089-2.283-22.936-3.518-38.547-3.71-35.401-.38-58.148 1.906-68.236 6.855-3.997 2.091-7.614 4.948-10.848 8.562-3.427 4.189-3.905 6.475-1.431 6.851 11.422 1.711 19.508 5.804 24.267 12.275l1.715 3.429c1.334 2.474 2.666 6.854 3.999 13.134 1.331 6.28 2.19 13.227 2.568 20.837.95 13.897.95 25.793 0 35.689-.953 9.9-1.853 17.607-2.712 23.127-.859 5.52-2.143 9.993-3.855 13.418-1.715 3.426-2.856 5.52-3.428 6.28-.571.76-1.047 1.239-1.425 1.427a21.387 21.387 0 0 1-7.71 1.431c-2.667 0-5.901-1.334-9.707-4-3.805-2.666-7.754-6.328-11.847-10.992-4.093-4.665-8.709-11.184-13.85-19.558-5.137-8.374-10.467-18.271-15.987-29.691l-4.567-8.282c-2.855-5.328-6.755-13.086-11.704-23.267-4.952-10.185-9.329-20.037-13.134-29.554-1.521-3.997-3.806-7.04-6.851-9.134l-1.429-.859c-.95-.76-2.475-1.567-4.567-2.427a30.301 30.301 0 0 0-6.567-1.854l-78.229.568c-7.994 0-13.418 1.811-16.274 5.428l-1.143 1.711c-.571.953-.859 2.475-.859 4.57 0 2.094.571 4.664 1.714 7.707 11.42 26.84 23.839 52.725 37.257 77.659 13.418 24.934 25.078 45.019 34.973 60.237 9.897 15.229 19.985 29.602 30.264 43.112 10.279 13.515 17.083 22.176 20.412 25.981 3.333 3.812 5.951 6.662 7.854 8.565l7.139 6.851c4.568 4.569 11.276 10.041 20.127 16.416 8.853 6.379 18.654 12.659 29.408 18.85 10.756 6.181 23.269 11.225 37.546 15.126 14.275 3.905 28.169 5.472 41.684 4.716h32.834c6.659-.575 11.704-2.669 15.133-6.283l1.136-1.431c.764-1.136 1.479-2.901 2.139-5.276.668-2.379 1-5 1-7.851-.195-8.183.428-15.558 1.852-22.124 1.423-6.564 3.045-11.513 4.859-14.846 1.813-3.33 3.859-6.14 6.136-8.418 2.282-2.283 3.908-3.666 4.862-4.142.948-.479 1.705-.804 2.276-.999 4.568-1.522 9.944-.048 16.136 4.429 6.187 4.473 11.99 9.996 17.418 16.56 5.425 6.57 11.943 13.941 19.555 22.124 7.617 8.186 14.277 14.271 19.985 18.274l5.708 3.426c3.812 2.286 8.761 4.38 14.853 6.283 6.081 1.902 11.409 2.378 15.984 1.427l73.087-1.14c7.229 0 12.854-1.197 16.844-3.572 3.998-2.379 6.373-5 7.139-7.851.764-2.854.805-6.092.145-9.712-.677-3.611-1.344-6.136-2.008-7.563z"/></symbol><symbol viewBox="0 0 42 43" id="wallet" xmlns="http://www.w3.org/2000/svg"><path d="M34.876 25.021a1.797 1.797 0 1 1-3.594.002 1.797 1.797 0 0 1 3.594-.002zm5.496 3.496h-7.99a3.39 3.39 0 0 1-3.388-3.387v-.35a3.391 3.391 0 0 1 3.388-3.388h7.99v7.125zm-2.036 9.838a2.446 2.446 0 0 1-2.442 2.443H4.07a2.446 2.446 0 0 1-2.443-2.443V10.4A2.446 2.446 0 0 1 4.07 7.957h9.167l-3.905 2.172H4.58a.814.814 0 1 0 0 1.628h33.756v8.007h-5.954a5.022 5.022 0 0 0-5.016 5.017v.35a5.022 5.022 0 0 0 5.016 5.015h5.954v8.21zM27.786 1.731a.83.83 0 0 1 1.106.316l4.495 8.08H12.684l15.101-8.396zm8.108 6.226c1.254 0 2.278.953 2.416 2.172h-3.06l-1.207-2.172h1.85zM42 19.764h-2.035V10.4a4.076 4.076 0 0 0-4.071-4.071h-2.758l-2.82-5.072a2.442 2.442 0 0 0-3.323-.95L16.166 6.33H4.07A4.076 4.076 0 0 0 0 10.399v27.956a4.076 4.076 0 0 0 4.071 4.072h31.823a4.076 4.076 0 0 0 4.07-4.072v-8.21H42V19.764z" fill="#B6CC4E" fill-rule="evenodd"/></symbol></svg>