<svg xmlns="http://www.w3.org/2000/svg" xmlns:xlink="http://www.w3.org/1999/xlink" width="30" height="42" viewBox="0 0 30 42">
    <defs>
        <path id="a" d="M30 28.535H0V.035h30z"/>
        <path id="c" d="M.008.05h22.746v14.11H.008z"/>
    </defs>
    <g fill="none" fill-rule="evenodd">
        <path fill="#fff" d="M14.999 17.169c6.012 0 10 2.257 10 3.75 0 1.492-3.988 3.75-10 3.75-6.012 0-10-2.258-10-3.75 0-1.493 3.988-3.75 10-3.75m0 8.5c5.86 0 11-2.22 11-4.75s-5.14-4.75-11-4.75-11 2.22-11 4.75 5.14 4.75 11 4.75"/>
        <g transform="translate(0 13.133)">
            <mask id="b" fill="#fff">
                <use xlink:href="#a"/>
            </mask>
            <path fill="#fff" d="M29 13.035c0 2.099-3.33 4.111-8.285 5.008a.5.5 0 1 0 .178.984c3.846-.696 6.693-1.992 8.107-3.6v.284c0 2.46-4.437 4.7-10.55 5.327a.5.5 0 1 0 .102.994c4.97-.51 8.745-1.99 10.448-3.94v.943c0 2.981-6.411 5.5-14 5.5a.5.5 0 0 0 0 1c6.468 0 11.855-1.69 14-4.127v.627c0 2.981-6.411 5.5-14 5.5s-14-2.519-14-5.5v-1.26c1.52 1.734 4.693 3.111 8.923 3.755a.5.5 0 1 0 .15-.99C4.732 22.729 1 20.616 1 18.403v-.737c1.252 1.427 3.634 2.614 6.888 3.358a.5.5 0 0 0 .222-.975C3.791 19.06 1 17.188 1 15.28v-.491c1.043 1.185 2.872 2.208 5.355 2.953a.5.5 0 0 0 .287-.958C3.11 15.724 1 14.086 1 12.402v-1.44c.016.023.035.043.052.065.114.155.234.308.366.458l.03.036a7.963 7.963 0 0 0 .568.574c.164.152.335.302.518.447l.01.008a10.689 10.689 0 0 0 .708.512c.203.135.412.268.63.396l.065.036c.205.118.417.232.635.344l.154.077c.237.118.48.232.732.341l.113.047c.228.097.461.19.7.28l.162.06c.267.098.54.191.82.28l.16.048c.25.077.506.15.767.219l.158.043c.294.076.594.146.9.212l.197.04c.276.058.557.111.842.16l.139.025c.318.052.641.098.969.14.076.01.152.018.229.027.308.037.618.07.934.096l.094.008a28.552 28.552 0 0 0 1.28.073c.353.012.708.021 1.068.021a29.714 29.714 0 0 0 1.317-.031c.347-.015.692-.035 1.031-.063l.094-.008c.316-.027.626-.06.934-.096l.23-.027c.327-.042.65-.088.968-.14l.14-.025c.284-.049.565-.102.841-.16l.197-.04c.305-.066.605-.137.9-.212l.158-.043c.26-.07.516-.142.767-.22.053-.015.107-.03.16-.047.28-.089.553-.182.82-.28l.162-.06c.239-.09.472-.183.7-.28.037-.016.076-.03.113-.047a15.8 15.8 0 0 0 .732-.34l.154-.078c.218-.112.43-.226.635-.344l.064-.036a12.291 12.291 0 0 0 1.339-.908l.01-.008a9.242 9.242 0 0 0 1.087-1.021l.03-.036a6.94 6.94 0 0 0 .366-.458c.016-.022.035-.043.051-.064v2.072zm-14-12c7.72 0 14 3.14 14 7s-6.28 7-14 7-14-3.14-14-7 6.28-7 14-7zm0-1c-8.411 0-15 3.514-15 8v14c0 3.645 6.589 6.5 15 6.5s15-2.855 15-6.5v-14c0-4.486-6.589-8-15-8z" mask="url(#b)"/>
        </g>
        <path fill="#fff" d="M14.999 19.169c4.53 0 7 1.156 7 1.75 0 .594-2.47 1.75-7 1.75-4.53 0-7-1.156-7-1.75 0-.594 2.47-1.75 7-1.75m0 4.5c3.976 0 8-.945 8-2.75 0-1.806-4.024-2.75-8-2.75s-8 .944-8 2.75c0 1.805 4.024 2.75 8 2.75"/>
        <g transform="translate(4.16 .008)">
            <mask id="d" fill="#fff">
                <use xlink:href="#c"/>
            </mask>
            <path fill="#fff" d="M.391 13.468a.471.471 0 0 0 .551-.374c.248-1.31.888-2.302 1.565-3.353C3.18 8.694 3.875 7.616 4.26 6.15c.649.273 1.854.88 2.938 1.968a.47.47 0 0 0 .687-.02c.106-.12 2.419-2.786 2.582-6.683.48.37 1.168.967 1.93 1.849 2.411 2.791 3.697 6.228 4.351 8.62a.47.47 0 0 0 .875.089l1.498-2.95c.743.723 2.224 2.416 2.7 4.76.052.256.3.42.556.369l.011-.003a.47.47 0 0 0 .357-.553c-.71-3.495-3.361-5.617-3.474-5.706a.471.471 0 0 0-.711.157l-1.241 2.443c-1.235-3.88-2.963-6.41-4.248-7.887C11.525.825 10.27.136 10.218.107a.47.47 0 0 0-.694.436c.147 3.152-1.38 5.624-2.045 6.543C5.847 5.622 4.135 5.09 4.058 5.067a.472.472 0 0 0-.6.36C3.152 7 2.42 8.136 1.715 9.232 1.018 10.31.3 11.429.016 12.918a.471.471 0 0 0 .375.55" mask="url(#d)"/>
        </g>
    </g>
</svg>
