<?xml version="1.0" encoding="UTF-8"?>
<svg width="35px" height="33px" viewBox="0 0 35 33" version="1.1" xmlns="http://www.w3.org/2000/svg" xmlns:xlink="http://www.w3.org/1999/xlink">
    <!-- Generator: sketchtool 47.1 (45422) - http://www.bohemiancoding.com/sketch -->
    <title>B0A52E7B-7EF7-4436-A60B-A8E1BEC34C26</title>
    <desc>Created with sketchtool.</desc>
    <defs>
        <polygon id="path-1" points="16.986172 33 0 33 0 0.0624018908 16.986172 0.0624018908"></polygon>
        <polygon id="path-3" points="0.0138626016 20 16.9999724 20 16.9999724 0.0358566308 0.0138626016 0.0358566308 0.0138626016 20"></polygon>
    </defs>
    <g id="Page-1" stroke="none" stroke-width="1" fill="none" fill-rule="evenodd">
        <g id="Apple-TV-Copy-16" transform="translate(-1063.000000, -517.000000)">
            <g id="Page-1" transform="translate(1063.000000, 517.000000)">
                <g id="Group-8">
                    <g id="Group-3">
                        <mask id="mask-2" fill="white">
                            <use xlink:href="#path-1"></use>
                        </mask>
                        <g id="Clip-2"></g>
                        <path d="M8.49308252,8.01429265 C4.09105,8.01429265 1.13332642,6.25336828 1.13332642,4.60336828 C1.13332642,2.96030105 4.09105,1.19244391 8.49308252,1.19244391 C12.895115,1.19244391 15.8528386,2.95336828 15.8528386,4.60336828 C15.8528386,6.25336828 12.895115,8.01429265 8.49308252,8.01429265 L8.49308252,8.01429265 Z M15.8528386,8.01429265 C15.8528386,9.65735987 12.895115,11.425217 8.49308252,11.425217 C4.09105,11.425217 1.13332642,9.65735987 1.13332642,8.01429265 L1.13332642,6.89811618 C2.58454593,8.25693971 5.30731016,9.15126744 8.49308252,9.15126744 C11.6788549,9.15126744 14.4016191,8.25693971 15.8528386,6.89811618 L15.8528386,8.01429265 Z M15.8528386,11.425217 C15.8528386,13.0682842 12.895115,14.8361414 8.49308252,14.8361414 C4.09105,14.8361414 1.13332642,13.0682842 1.13332642,11.425217 L1.13332642,10.3090405 C2.58454593,11.6678641 5.30731016,12.5621918 8.49308252,12.5621918 C11.6788549,12.5621918 14.4016191,11.6678641 15.8528386,10.3090405 L15.8528386,11.425217 Z M15.8528386,14.8292086 C15.8528386,16.4722758 12.895115,18.240133 8.49308252,18.240133 C4.09105,18.240133 1.13332642,16.4792086 1.13332642,14.8292086 L1.13332642,13.7130321 C2.58454593,15.0718557 5.30731016,15.9661834 8.49308252,15.9661834 C11.6788549,15.9661834 14.4016191,15.0718557 15.8528386,13.7130321 L15.8528386,14.8292086 Z M15.8528386,18.240133 C15.8528386,19.8832002 12.895115,21.6510574 8.49308252,21.6510574 C4.09105,21.6510574 1.13332642,19.8832002 1.13332642,18.240133 L1.13332642,17.1239565 C2.58454593,18.4758473 5.30731016,19.3771078 8.49308252,19.3771078 C11.6788549,19.3771078 14.4016191,18.48278 15.8528386,17.1239565 L15.8528386,18.240133 Z M15.8528386,21.6441246 C15.8528386,23.2871918 12.895115,25.0550489 8.49308252,25.0550489 C4.09105,25.0550489 1.13332642,23.2941246 1.13332642,21.6441246 L1.13332642,20.5279481 C2.58454593,21.8867716 5.30731016,22.7810994 8.49308252,22.7810994 C11.6788549,22.7810994 14.4016191,21.8867716 15.8528386,20.5279481 L15.8528386,21.6441246 Z M15.8528386,25.0550489 C15.8528386,26.6981162 12.895115,28.4659733 8.49308252,28.4659733 C4.09105,28.4659733 1.13332642,26.6981162 1.13332642,25.0550489 L1.13332642,23.9388725 C2.58454593,25.297696 5.30731016,26.1920237 8.49308252,26.1920237 C11.6788549,26.1920237 14.4016191,25.297696 15.8528386,23.9388725 L15.8528386,25.0550489 Z M15.8528386,28.4659733 C15.8528386,30.1090405 12.895115,31.8768977 8.49308252,31.8768977 C4.09105,31.8768977 1.13332642,30.1090405 1.13332642,28.4659733 L1.13332642,27.3497968 C2.58454593,28.7086204 5.30731016,29.6029481 8.49308252,29.6029481 C11.6788549,29.6029481 14.4016191,28.7086204 15.8528386,27.3497968 L15.8528386,28.4659733 Z M8.49308252,0.0624018908 C3.73170041,0.0624018908 -6.91056911e-06,2.05904055 -6.91056911e-06,4.60336828 L-6.91056911e-06,28.4590405 C-6.91056911e-06,31.0103011 3.73170041,33.0000069 8.49308252,33.0000069 C13.2544646,33.0000069 16.986172,31.0033683 16.986172,28.4590405 L16.986172,4.60336828 C16.986172,2.05904055 13.2544646,0.0624018908 8.49308252,0.0624018908 L8.49308252,0.0624018908 Z" id="Fill-1" fill="#B6CC4E" mask="url(#mask-2)"></path>
                    </g>
                    <g id="Group-6" transform="translate(18.000000, 13.000000)">
                        <mask id="mask-4" fill="white">
                            <use xlink:href="#path-3"></use>
                        </mask>
                        <g id="Clip-5"></g>
                        <path d="M8.50688293,8.25807885 C4.10491951,8.25807885 1.14712683,6.43729032 1.14712683,4.73119713 C1.14712683,3.0322724 4.10491951,1.20431541 8.50688293,1.20431541 C12.9089154,1.20431541 15.866639,3.02510394 15.866639,4.73119713 C15.866639,6.43729032 12.9089154,8.25807885 8.50688293,8.25807885 L8.50688293,8.25807885 Z M15.866639,8.25807885 C15.866639,9.95700358 12.9089154,11.7849606 8.50688293,11.7849606 C4.10491951,11.7849606 1.14712683,9.96417204 1.14712683,8.25807885 L1.14712683,7.1038853 C2.59834634,8.50897491 5.32111057,9.43363441 8.50688293,9.43363441 C11.6927244,9.43363441 14.4154195,8.50897491 15.866639,7.1038853 L15.866639,8.25807885 Z M15.866639,11.7849606 C15.866639,13.4838136 12.9089154,15.3117706 8.50688293,15.3117706 C4.10491951,15.3117706 1.14712683,13.4910538 1.14712683,11.7849606 L1.14712683,10.6308387 C2.59834634,12.0358566 5.32111057,12.9605878 8.50688293,12.9605878 C11.6927244,12.9605878 14.4154195,12.0358566 15.866639,10.6308387 L15.866639,11.7849606 Z M15.866639,15.3117706 C15.866639,17.010767 12.9089154,18.838724 8.50688293,18.838724 C4.10491951,18.838724 1.14712683,17.0179355 1.14712683,15.3117706 L1.14712683,14.1577204 C2.59834634,15.5626667 5.32111057,16.4874695 8.50688293,16.4874695 C11.6927244,16.4874695 14.4154195,15.5626667 15.866639,14.1577204 L15.866639,15.3117706 Z M8.50688293,0.0358566308 C3.74556992,0.0358566308 0.0138626016,2.10037276 0.0138626016,4.73119713 L0.0138626016,15.3046738 C0.0138626016,17.9426667 3.74556992,20.0000143 8.50688293,20.0000143 C13.268265,20.0000143 16.9999724,17.9426667 16.9999724,15.3117706 L16.9999724,4.73829391 C16.9999724,2.10037276 13.268265,0.0358566308 8.50688293,0.0358566308 L8.50688293,0.0358566308 Z" id="Fill-4" fill="#B6CC4E" mask="url(#mask-4)"></path>
                    </g>
                </g>
            </g>
        </g>
    </g>
</svg>