<svg xmlns="http://www.w3.org/2000/svg" width="30" height="42" viewBox="0 0 30 42">
    <g fill="#fff" fill-rule="evenodd">
        <path d="M14.999 16.992c6.012 0 10 2.257 10 3.75 0 1.493-3.988 3.75-10 3.75-6.012 0-10-2.257-10-3.75 0-1.493 3.988-3.75 10-3.75m0 8.5c5.86 0 11-2.22 11-4.75s-5.14-4.75-11-4.75-11 2.22-11 4.75 5.14 4.75 11 4.75"/>
        <path d="M29 25.992c0 2.099-3.33 4.112-8.285 5.008a.5.5 0 1 0 .178.984c3.846-.696 6.693-1.992 8.107-3.6v.284c0 2.46-4.437 4.7-10.55 5.327a.5.5 0 1 0 .102.995c4.97-.51 8.745-1.991 10.448-3.94v.942c0 2.981-6.411 5.5-14 5.5a.5.5 0 0 0 0 1c6.468 0 11.855-1.69 14-4.127v.627c0 2.981-6.411 5.5-14 5.5s-14-2.519-14-5.5v-1.26c1.52 1.734 4.693 3.111 8.923 3.755a.5.5 0 0 0 .15-.99C4.732 35.687 1 33.573 1 31.36v-.737c1.252 1.427 3.634 2.614 6.888 3.358a.5.5 0 0 0 .222-.975C3.791 32.018 1 30.145 1 28.237v-.491c1.043 1.185 2.872 2.208 5.355 2.953a.5.5 0 0 0 .287-.958C3.11 28.68 1 27.043 1 25.359v-1.44c.016.023.035.043.052.065.114.155.234.308.366.458l.03.036a7.964 7.964 0 0 0 .568.574c.164.152.335.302.518.447l.01.008a10.712 10.712 0 0 0 .708.512c.203.135.412.268.63.396l.065.036c.205.118.417.232.635.344l.154.077c.237.118.48.232.732.341l.113.048c.228.096.461.19.7.279l.162.06c.267.098.541.191.82.28l.16.048c.25.077.506.15.767.219l.158.043c.294.076.594.146.9.212l.197.04c.276.058.557.111.842.16l.139.025c.318.052.641.098.969.14.076.01.152.018.229.027.308.037.618.07.934.096l.094.008a28.54 28.54 0 0 0 1.28.073c.353.012.708.021 1.068.021a29.713 29.713 0 0 0 1.317-.031c.347-.015.692-.035 1.031-.063l.094-.008c.316-.027.627-.06.934-.096l.23-.027c.327-.042.65-.088.968-.14l.14-.025c.284-.049.565-.102.841-.16l.197-.04c.305-.066.605-.137.9-.212l.158-.043c.26-.07.516-.142.767-.22.053-.015.107-.03.16-.047.28-.089.553-.182.82-.28l.162-.06c.239-.09.472-.183.7-.28.037-.015.076-.03.113-.047.252-.109.495-.223.732-.34l.154-.078c.218-.112.43-.226.635-.344.021-.012.043-.023.064-.036a12.315 12.315 0 0 0 1.339-.908l.01-.008a9.242 9.242 0 0 0 1.087-1.021l.03-.036a6.92 6.92 0 0 0 .366-.458c.016-.022.035-.042.051-.064v2.072zm-14-12c7.72 0 14 3.14 14 7s-6.28 7-14 7-14-3.14-14-7 6.28-7 14-7zm0-1c-8.411 0-15 3.514-15 8v14c0 3.645 6.589 6.5 15 6.5s15-2.855 15-6.5v-14c0-4.486-6.589-8-15-8z"/>
        <path d="M14.999 18.992c4.53 0 7 1.156 7 1.75 0 .594-2.47 1.75-7 1.75-4.53 0-7-1.156-7-1.75 0-.594 2.47-1.75 7-1.75m0 4.5c3.976 0 8-.944 8-2.75 0-1.805-4.024-2.75-8-2.75s-8 .945-8 2.75c0 1.806 4.024 2.75 8 2.75M9.737 8.201c0 1.098.43 2.133 1.211 2.914a.483.483 0 0 0 .69 0 .483.483 0 0 0 0-.69 3.136 3.136 0 0 1-.923-2.224c0-.839.328-1.63.922-2.227a4.086 4.086 0 0 0 1.212-2.915A4.1 4.1 0 0 0 11.637.142a.485.485 0 0 0-.689 0 .491.491 0 0 0 0 .693c.595.594.922 1.384.922 2.224 0 .837-.327 1.627-.922 2.225A4.102 4.102 0 0 0 9.738 8.2M17.154 8.201c0 1.098.43 2.133 1.21 2.914a.483.483 0 0 0 .69 0 .483.483 0 0 0 0-.69 3.136 3.136 0 0 1-.922-2.224c0-.839.328-1.63.922-2.227a4.085 4.085 0 0 0 1.209-2.915c0-1.101-.43-2.137-1.209-2.917a.486.486 0 0 0-.69 0 .491.491 0 0 0 .001.693c.594.594.922 1.384.922 2.224 0 .837-.328 1.627-.922 2.225a4.102 4.102 0 0 0-1.21 2.917M13.447 8.201c0 1.098.43 2.133 1.211 2.914a.483.483 0 0 0 .69 0 .483.483 0 0 0 0-.69 3.136 3.136 0 0 1-.923-2.224c0-.839.328-1.63.922-2.227a4.085 4.085 0 0 0 1.209-2.915c0-1.101-.43-2.137-1.209-2.917a.486.486 0 0 0-.69 0 .491.491 0 0 0 .001.693c.595.594.922 1.384.922 2.224 0 .837-.327 1.627-.922 2.225a4.102 4.102 0 0 0-1.21 2.917"/>
    </g>
</svg>
