<?xml version="1.0" encoding="UTF-8"?>
<svg width="30px" height="29px" viewBox="0 0 30 29" version="1.1" xmlns="http://www.w3.org/2000/svg" xmlns:xlink="http://www.w3.org/1999/xlink">
    <!-- Generator: sketchtool 47.1 (45422) - http://www.bohemiancoding.com/sketch -->
    <title>4341E9DD-F9C4-4098-98E2-3A3FA920D445</title>
    <desc>Created with sketchtool.</desc>
    <defs>
        <polygon id="path-1" points="5.859375e-06 28.5106383 30 28.5106383 30 0.0351260431 5.859375e-06 0.0351260431"></polygon>
    </defs>
    <g id="Page-1" stroke="none" stroke-width="1" fill="none" fill-rule="evenodd">
        <g id="Apple-TV-Copy-15" transform="translate(-538.000000, -138.000000)">
            <g id="Page-1" transform="translate(538.000000, 138.000000)">
                <path d="M15,3.98652485 C20.9884732,3.98652485 24.9613524,6.26131213 24.9613524,7.76592792 C24.9613524,9.27054371 20.9884732,11.545331 15,11.545331 C9.01152678,11.545331 5.03864758,9.27054371 5.03864758,7.76592792 C5.03864758,6.26131213 9.01152678,3.98652485 15,3.98652485 M15,12.5531915 C20.8372438,12.5531915 25.9574468,10.3160801 25.9574468,7.76592792 C25.9574468,5.21583475 20.8372438,2.9787234 15,2.9787234 C9.16281453,2.9787234 4.04255319,5.21583475 4.04255319,7.76592792 C4.04255319,10.3160801 9.16281453,12.5531915 15,12.5531915" id="Fill-1" fill="#FFFFFF"></path>
                <g id="Group-5">
                    <mask id="mask-2" fill="#000">
                        <use xlink:href="#path-1"></use>
                    </mask>
                    <g id="Clip-4"></g>
                    <path d="M28.9999863,13.0239464 C28.9999863,15.1207956 25.6704551,17.1317615 20.7152988,18.0277098 C20.4606504,18.0734908 20.2829941,18.3060252 20.3059629,18.5636161 C20.3289902,18.8212071 20.5448496,19.018674 20.8036582,19.0187911 C20.8336582,19.0189082 20.8635996,19.0162152 20.8930723,19.0107707 C24.7388145,18.3155092 27.5857676,17.0205291 28.9999863,15.4140395 L28.9999863,15.6976823 C28.9999863,18.1548075 24.5629746,20.3928634 18.4496543,21.0198047 C18.1849277,21.0469103 17.9879355,21.2765175 18.0014121,21.5420704 C18.0149473,21.8076819 18.2343809,22.0160378 18.5005137,22.0162135 C18.5177988,22.016272 18.5350254,22.0153939 18.5521934,22.0135205 C23.5220566,21.5039587 27.2973105,20.0246839 28.9999863,18.0770619 L28.9999863,19.0187911 C28.9999863,21.997421 22.588834,24.5140849 14.9999473,24.5140849 C14.7238535,24.5140849 14.4999668,24.7377207 14.4999668,25.0136358 C14.4999668,25.2895509 14.7238535,25.5131867 14.9999473,25.5131867 C21.4679941,25.5131867 26.8546348,23.8253803 28.9999863,21.3900332 L28.9999863,22.0162135 C28.9999863,24.9948434 22.588834,27.5115073 14.9999473,27.5115073 C7.41111914,27.5115073 0.999966797,24.9948434 0.999966797,22.0162135 L1.00002539,20.7575303 C2.5205918,22.4892442 5.69326758,23.8657753 9.92332617,24.5084648 C10.196373,24.5499135 10.4514316,24.3624575 10.492916,24.0896452 C10.534459,23.816833 10.3467832,23.5619935 10.0737363,23.5205448 C4.73139258,22.7089576 1.00002539,20.5975311 1.00002539,18.3857613 L1.00002539,17.6493438 C2.25223242,19.0757539 4.63441992,20.2616676 7.88766211,21.004642 C8.15666602,21.06541 8.42408789,20.8971563 8.48549414,20.6285006 C8.54690039,20.3599034 8.3790293,20.0923015 8.11031836,20.0303626 C3.79102148,19.0441404 1.00002539,17.1739713 1.00002539,15.266393 L1.00002539,14.776092 C2.04287695,15.9597811 3.87170508,16.9823588 6.3549668,17.7264455 C6.61899023,17.8041326 6.89619727,17.6539687 6.97524023,17.3905819 C7.05422461,17.1271952 6.90533789,16.8494652 6.64213477,16.7692608 C3.1093418,15.7106204 1.00002539,14.0738639 1.00002539,12.3909166 L1.00002539,10.9532077 C1.01572852,10.9751614 1.03547461,10.9959443 1.05158789,11.0177225 C1.16566992,11.1726283 1.28637305,11.3256023 1.41756445,11.4752977 C1.42787695,11.487065 1.43690039,11.4991835 1.44733008,11.5109507 C1.58824805,11.6697204 1.74141211,11.8245092 1.90096289,11.9770733 C1.93869727,12.013136 1.97695898,12.0489646 2.01568945,12.0846175 C2.18045508,12.2364791 2.35119727,12.3862331 2.53395117,12.5313037 L2.54426367,12.5391485 C2.72502539,12.6822871 2.91697852,12.8208008 3.11443945,12.9568557 C3.15984961,12.9881764 3.20531836,13.0193801 3.25160742,13.050291 C3.45451758,13.185936 3.66363867,13.3186539 3.8827793,13.4466298 C3.90375586,13.4588654 3.92596289,13.470457 3.94717383,13.482634 C4.1518418,13.6007161 4.36441992,13.714583 4.58227148,13.8256984 C4.63336523,13.8516916 4.68381445,13.8778605 4.73555273,13.903444 C4.97279883,14.0209406 5.21619727,14.1348075 5.46779883,14.2438154 C5.50512305,14.2599733 5.54385352,14.2752532 5.5814707,14.291177 C5.80904883,14.3877736 6.04219336,14.4807405 6.28096289,14.5700778 C6.33498633,14.5903338 6.38824805,14.6110582 6.44285742,14.6310215 C6.7102793,14.7284962 6.98391211,14.8214046 7.26387305,14.9096881 C7.31631445,14.9262558 7.36998633,14.9416528 7.42283789,14.9579278 C7.67379492,15.0346782 7.92938086,15.1076233 8.18953711,15.1768802 C8.24256445,15.1909306 8.29453711,15.2057421 8.34791602,15.2194998 C8.64229102,15.295372 8.94234961,15.3660924 9.24797461,15.4317196 C9.31313086,15.44577 9.37916602,15.4587667 9.44479102,15.4723487 C9.7214707,15.5294871 10.0021934,15.582586 10.2867832,15.6315282 C10.3334238,15.6394316 10.3790684,15.6483887 10.4258848,15.6560579 C10.7439316,15.7085714 11.0675449,15.7547036 11.3949082,15.7962694 C11.4707871,15.8058705 11.547252,15.814652 11.6236582,15.8237262 C11.9315684,15.8601402 12.2424668,15.8925733 12.5578184,15.9190349 C12.5892832,15.9216694 12.6201621,15.925182 12.6518027,15.9276993 C12.9911777,15.9550391 13.3356504,15.9748268 13.6828184,15.9901651 C13.7657285,15.9939119 13.848873,15.9970147 13.932252,15.9999419 C14.2849863,16.0125873 14.640123,16.0213688 15.0000059,16.0213688 C15.3598887,16.0213688 15.7149668,16.0125873 16.0677598,15.9999419 C16.1511387,15.9970147 16.2342832,15.9938534 16.3171934,15.9901651 C16.6643613,15.9748268 17.0088926,15.9550391 17.3482676,15.9276993 C17.3798496,15.925182 17.4107285,15.9216694 17.442252,15.9189764 C17.7575449,15.8925733 18.068502,15.8601402 18.3763535,15.8237262 C18.4527598,15.814652 18.5292246,15.8058705 18.6051621,15.7962108 C18.932584,15.754645 19.2560801,15.7085714 19.574127,15.6560579 C19.621002,15.6483887 19.6665879,15.6394316 19.7132285,15.6315282 C19.9981113,15.5827616 20.278834,15.5297213 20.5553965,15.4722902 C20.6208457,15.4587081 20.6867637,15.44577 20.7518027,15.4317196 C21.057252,15.3659168 21.3573105,15.2951378 21.6521543,15.2194412 C21.7054746,15.2057421 21.7575059,15.1909306 21.8104746,15.1768802 C22.0706895,15.1077404 22.326334,15.0347368 22.5771738,14.9578693 C22.6300254,14.9416528 22.6836973,14.9262558 22.7361387,14.9096881 C23.0162168,14.8215217 23.2898496,14.7286133 23.5570957,14.6309629 C23.6117637,14.6110582 23.6650254,14.5902752 23.7190488,14.5700778 C23.9575254,14.4805649 24.1907285,14.387598 24.418541,14.291177 C24.4561582,14.2751946 24.4948887,14.2599733 24.5322129,14.2438154 C24.7838145,14.1348075 25.0272129,14.0209406 25.264459,13.903444 C25.3161973,13.877802 25.3666465,13.8516916 25.4176816,13.8256398 C25.6355918,13.714583 25.8481699,13.6006575 26.0528379,13.482634 C26.0739902,13.4703984 26.0962559,13.4588654 26.117291,13.4465713 C26.3363145,13.3186539 26.5454355,13.1858775 26.7484043,13.050291 C26.7946934,13.0193801 26.8401621,12.9881764 26.8855723,12.9568557 C27.0830332,12.8207423 27.2749863,12.6822286 27.455748,12.53909 L27.4660605,12.5313037 C27.6487559,12.3862331 27.8195566,12.2364791 27.9843223,12.084559 C28.0230527,12.048906 28.0612559,12.0130775 28.0990488,11.9770733 C28.2586582,11.8245092 28.4117637,11.6697204 28.5526816,11.5108921 C28.5630527,11.4991835 28.5720762,11.4871235 28.5823301,11.4754148 C28.7135801,11.3255437 28.834459,11.1725112 28.9485996,11.0174883 C28.9645957,10.9957102 28.9842832,10.9750443 28.9999863,10.9532077 L28.9999863,13.0239464 Z M15.0000059,1.03425707 C22.7196738,1.03425707 28.9999863,4.17171523 28.9999863,8.02826205 C28.9999863,11.8848089 22.7196738,15.0222085 15.0000059,15.0222085 C7.2802793,15.0222085 1.00002539,11.8848089 1.00002539,8.02826205 C1.00002539,4.17171523 7.2802207,1.03425707 15.0000059,1.03425707 L15.0000059,1.03425707 Z M15.0000059,0.0350967714 C6.58887305,0.0350967714 5.859375e-06,3.54600332 5.859375e-06,8.02826205 L5.859375e-06,22.0162135 C5.859375e-06,25.6578474 6.58887305,28.5106676 15.0000059,28.5106676 C23.4111387,28.5106676 30.0000059,25.6578474 30.0000059,22.0162135 L30.0000059,8.02826205 C30.0000059,3.54600332 23.4111387,0.0350967714 15.0000059,0.0350967714 L15.0000059,0.0350967714 Z" id="Fill-3" fill="#FFFFFF" mask="url(#mask-2)"></path>
                </g>
                <path d="M15,6.11220176 C19.5172619,6.11220176 21.9814195,7.27490163 21.9814195,7.87231096 C21.9814195,8.46977922 19.5172619,9.63247909 15,9.63247909 C10.4827381,9.63247909 8.0185805,8.46977922 8.0185805,7.87231096 C8.0185805,7.27490163 10.4827381,6.11220176 15,6.11220176 M15,10.6382979 C18.9650223,10.6382979 22.9787234,9.68823022 22.9787234,7.87231096 C22.9787234,6.05645063 18.9650223,5.10638298 15,5.10638298 C11.0349777,5.10638298 7.0212766,6.05645063 7.0212766,7.87231096 C7.0212766,9.68823022 11.0349777,10.6382979 15,10.6382979" id="Fill-6" fill="#FFFFFF"></path>
            </g>
        </g>
    </g>
</svg>